<?xml version="1.0" encoding="utf-8"?>
<!DOCTYPE svg PUBLIC "-//W3C//DTD SVG 20010904//EN"
              "http://www.w3.org/TR/2001/REC-SVG-20010904/DTD/svg10.dtd">

<svg width="500.00003" height="150" viewBox="0 0 132.29167 39.6875" version="1.1" id="svg5" xml:space="preserve"
    xmlns="http://www.w3.org/2000/svg"
    xmlns:svg="http://www.w3.org/2000/svg">
    <defs id="defs2" />
    <g id="layer1">
        <rect style="fill:transparent;fill-opacity:1;stroke:none;stroke-width:1.14568;stroke-linecap:round;stroke-linejoin:round;stroke-opacity:1" id="rect2240" width="132.29167" height="39.6875" x="0" y="0" />
        <g id="g2462" transform="translate(-4.1098352,-9.0997131)">
            <g id="g2042" transform="matrix(0.4,0,0,0.4,18.590736,1.6700083)">
                <rect stroke="currentColor" style="fill:#ececec;fill-opacity:1;stroke:currentColor;stroke-width:1.32292;stroke-linecap:round;stroke-linejoin:round;stroke-opacity:1" id="rect1749" width="77.231628" height="57.231632" x="200.85107" y="39.567822" />
                <g aria-label="Object Characteristics" id="text1585" style="font-weight:bold;font-size:8.46667px;font-family:'Noto Sans';-inkscape-font-specification:'Noto Sans, Bold';text-align:center;text-anchor:middle;stroke-width:2;stroke-linecap:round;stroke-linejoin:round" transform="translate(46.225038,5.3332126)">
                    <path d="m 185.54988,57.702689 q 0,0.939801 -0.31326,1.642534 -0.3048,0.694267 -0.9398,1.083734 -0.635,0.389467 -1.62561,0.389467 -0.98213,0 -1.6256,-0.389467 -0.635,-0.389467 -0.94826,-1.092201 -0.3048,-0.702733 -0.3048,-1.642534 0,-0.9398 0.3048,-1.634067 0.31326,-0.694267 0.94826,-1.075267 0.64347,-0.389467 1.63407,-0.389467 0.98214,0 1.61714,0.389467 0.635,0.381 0.9398,1.083734 0.31326,0.694267 0.31326,1.634067 z m -4.41113,0 q 0,0.948267 0.36406,1.498601 0.36407,0.541867 1.1684,0.541867 0.82127,0 1.17687,-0.541867 0.3556,-0.550334 0.3556,-1.498601 0,-0.956734 -0.3556,-1.4986 -0.3556,-0.541867 -1.1684,-0.541867 -0.8128,0 -1.17687,0.541867 -0.36406,0.541866 -0.36406,1.4986 z" id="path1852" />
                    <path d="m 187.96288,55.797688 q 0,0.262467 -0.0169,0.516467 -0.0169,0.254 -0.0339,0.397934 h 0.0508 q 0.18627,-0.287867 0.49953,-0.4826 0.31327,-0.203201 0.8128,-0.203201 0.77894,0 1.26154,0.609601 0.4826,0.601133 0.4826,1.778 0,1.185334 -0.49107,1.794934 -0.49107,0.609601 -1.28693,0.609601 -0.508,0 -0.80434,-0.1778 -0.28786,-0.186267 -0.47413,-0.414867 h -0.0847 l -0.21166,0.508 h -0.9652 v -6.434669 h 1.26153 z m 0.90593,1.236134 q -0.49106,0 -0.69426,0.3048 -0.19474,0.3048 -0.21167,0.931334 v 0.135467 q 0,0.668867 0.19473,1.032934 0.2032,0.3556 0.72814,0.3556 0.38946,0 0.61806,-0.3556 0.2286,-0.364067 0.2286,-1.041401 0,-0.677334 -0.23706,-1.016 -0.2286,-0.347134 -0.62654,-0.347134 z" id="path1854" />
                    <path d="m 192.00994,54.917155 q 0,-0.3556 0.19474,-0.4826 0.2032,-0.135467 0.49106,-0.135467 0.2794,0 0.4826,0.135467 0.2032,0.127 0.2032,0.4826 0,0.347133 -0.2032,0.4826 -0.2032,0.135467 -0.4826,0.135467 -0.28786,0 -0.49106,-0.135467 -0.19474,-0.135467 -0.19474,-0.4826 z m -0.32173,7.848603 q -0.21167,0 -0.44027,-0.03387 -0.23706,-0.0254 -0.38946,-0.06773 v -0.990601 q 0.1524,0.03387 0.28786,0.0508 0.13547,0.0254 0.3048,0.0254 0.254,0 0.4318,-0.143933 0.1778,-0.143933 0.1778,-0.5588 v -4.936069 h 1.26154 v 5.122336 q 0,0.423333 -0.16087,0.770467 -0.16087,0.347133 -0.52493,0.550333 -0.3556,0.211667 -0.94827,0.211667 z" id="path1856" />
                    <path d="m 196.54808,56.026288 q 0.95674,0 1.51554,0.550334 0.5588,0.541867 0.5588,1.549401 v 0.6096 h -2.98027 q 0.0169,0.5334 0.31326,0.8382 0.3048,0.3048 0.8382,0.3048 0.44874,0 0.81281,-0.08467 0.36406,-0.09313 0.75353,-0.2794 v 0.973667 q -0.33867,0.169333 -0.71967,0.245533 -0.37253,0.08467 -0.90593,0.08467 -0.69427,0 -1.22767,-0.254 -0.5334,-0.262467 -0.8382,-0.787401 -0.3048,-0.524933 -0.3048,-1.3208 0,-0.812801 0.27093,-1.346201 0.2794,-0.541867 0.77047,-0.8128 0.49107,-0.270934 1.143,-0.270933 z m 0.008,0.897468 q -0.36407,0 -0.6096,0.237066 -0.23707,0.237067 -0.2794,0.736601 h 1.76953 q -0.008,-0.423334 -0.22013,-0.694267 -0.21167,-0.2794 -0.6604,-0.2794 z" id="path1858" />
                    <path d="m 201.52648,60.818424 q -1.03293,0 -1.6002,-0.567267 -0.5588,-0.575734 -0.5588,-1.803401 0,-0.846667 0.28786,-1.380067 0.28787,-0.5334 0.79587,-0.7874 0.51647,-0.254001 1.18534,-0.254001 0.47413,0 0.82126,0.09313 0.3556,0.09313 0.61807,0.220133 l -0.37253,0.973667 q -0.29634,-0.118533 -0.5588,-0.194733 -0.254,-0.0762 -0.508,-0.0762 -0.98214,0 -0.98214,1.397 0,0.694267 0.254,1.024468 0.26247,0.3302 0.72814,0.3302 0.39793,0 0.70273,-0.1016 0.3048,-0.110067 0.59267,-0.296334 v 1.075267 q -0.28787,0.186267 -0.6096,0.262467 -0.31327,0.08467 -0.79587,0.08467 z" id="path1860" />
                    <path d="m 205.94608,59.81089 q 0.21167,0 0.4064,-0.04233 0.19473,-0.04233 0.38947,-0.1016 v 0.9398 q -0.2032,0.08467 -0.508,0.143933 -0.29634,0.06773 -0.65194,0.06773 -0.41486,0 -0.74506,-0.135467 -0.32174,-0.135467 -0.51647,-0.465667 -0.18627,-0.338667 -0.18627,-0.931334 v -2.226734 h -0.60113 v -0.5334 l 0.69427,-0.423333 0.36406,-0.973668 h 0.80434 v 0.982134 h 1.2954 v 0.948267 h -1.2954 v 2.226734 q 0,0.262467 0.1524,0.397934 0.1524,0.127 0.39793,0.127 z" id="path1862" />
                    <path d="m 164.81501,66.254026 q -0.7366,0 -1.12607,0.550333 -0.38947,0.550334 -0.38947,1.507068 0,0.9652 0.3556,1.4986 0.36407,0.524934 1.15994,0.524934 0.37253,0 0.7366,-0.08467 0.37253,-0.08467 0.80433,-0.237067 v 1.075267 q -0.39793,0.160867 -0.7874,0.237067 -0.38947,0.0762 -0.87207,0.0762 -0.93133,0 -1.54093,-0.381 -0.60113,-0.389467 -0.889,-1.083734 -0.28787,-0.702733 -0.28787,-1.634067 0,-0.9144 0.3302,-1.617134 0.3302,-0.702734 0.95674,-1.100667 0.635,-0.397934 1.5494,-0.397934 0.44873,0 0.89746,0.118534 0.4572,0.110067 0.87207,0.3048 l -0.41487,1.0414 q -0.33866,-0.160866 -0.6858,-0.2794 -0.33866,-0.118533 -0.66886,-0.118533 z" id="path1864" />
                    <path d="m 168.8028,66.194759 q 0,0.338667 -0.0254,0.651934 -0.0169,0.313267 -0.0339,0.440267 h 0.0677 q 0.22013,-0.355601 0.56726,-0.516467 0.34714,-0.160867 0.77047,-0.160867 0.75354,0 1.20227,0.4064 0.4572,0.397934 0.4572,1.286934 v 3.014135 h -1.26153 v -2.700868 q 0,-0.999067 -0.74507,-0.999067 -0.56727,0 -0.7874,0.397933 -0.21167,0.389467 -0.21167,1.126067 v 2.175935 h -1.26153 v -6.43467 h 1.26153 z" id="path1866" />
                    <path d="m 175.0004,66.601159 q 0.93133,0 1.4224,0.406401 0.49953,0.397933 0.49953,1.227667 v 3.081868 h -0.88053 l -0.24553,-0.626534 h -0.0339 q -0.29633,0.372533 -0.62653,0.541867 -0.3302,0.169333 -0.90594,0.169333 -0.61806,0 -1.02446,-0.3556 -0.4064,-0.364067 -0.4064,-1.109134 0,-0.7366 0.51646,-1.083733 0.51647,-0.355601 1.5494,-0.389467 l 0.80434,-0.0254 v -0.2032 q 0,-0.364067 -0.19474,-0.533401 -0.18626,-0.169333 -0.52493,-0.169333 -0.33867,0 -0.6604,0.1016 -0.32173,0.09313 -0.64347,0.237067 l -0.41486,-0.855134 q 0.37253,-0.194733 0.82126,-0.3048 0.4572,-0.110067 0.94827,-0.110067 z m 0.1778,2.590801 q -0.6096,0.01693 -0.84667,0.220134 -0.23706,0.2032 -0.23706,0.5334 0,0.287867 0.16933,0.414867 0.16933,0.118533 0.44027,0.118533 0.4064,0 0.6858,-0.237067 0.2794,-0.245533 0.2794,-0.6858 v -0.381 z" id="path1868" />
                    <path d="m 180.80007,66.609626 q 0.0931,0 0.22013,0.0085 0.127,0.0085 0.2032,0.0254 l -0.0931,1.185334 q -0.0593,-0.01693 -0.1778,-0.0254 -0.11007,-0.01693 -0.19473,-0.01693 -0.32174,0 -0.61807,0.118534 -0.29633,0.110066 -0.4826,0.364066 -0.1778,0.254 -0.1778,0.694267 v 2.353735 h -1.26154 V 66.69433 h 0.95674 l 0.18627,0.778933 h 0.0593 q 0.2032,-0.3556 0.5588,-0.6096 0.3556,-0.254 0.82127,-0.254 z" id="path1870" />
                    <path d="m 183.7888,66.601159 q 0.93134,0 1.42241,0.406401 0.49953,0.397933 0.49953,1.227667 v 3.081868 h -0.88053 l -0.24554,-0.626534 h -0.0339 q -0.29634,0.372533 -0.62654,0.541867 -0.3302,0.169333 -0.90593,0.169333 -0.61807,0 -1.02447,-0.3556 -0.4064,-0.364067 -0.4064,-1.109134 0,-0.7366 0.51647,-1.083733 0.51646,-0.355601 1.5494,-0.389467 l 0.80433,-0.0254 v -0.2032 q 0,-0.364067 -0.19473,-0.533401 -0.18627,-0.169333 -0.52494,-0.169333 -0.33866,0 -0.6604,0.1016 -0.32173,0.09313 -0.64346,0.237067 l -0.41487,-0.855134 q 0.37253,-0.194733 0.82127,-0.3048 0.4572,-0.110067 0.94826,-0.110067 z m 0.1778,2.590801 q -0.6096,0.01693 -0.84666,0.220134 -0.23707,0.2032 -0.23707,0.5334 0,0.287867 0.16933,0.414867 0.16934,0.118533 0.44027,0.118533 0.4064,0 0.6858,-0.237067 0.2794,-0.245533 0.2794,-0.6858 v -0.381 z" id="path1872" />
                    <path d="m 188.88574,71.401761 q -1.03293,0 -1.6002,-0.567267 -0.5588,-0.575733 -0.5588,-1.8034 0,-0.846667 0.28787,-1.380068 0.28786,-0.5334 0.79586,-0.7874 0.51647,-0.254 1.18534,-0.254 0.47413,0 0.82127,0.09313 0.3556,0.09313 0.61806,0.220134 l -0.37253,0.973667 q -0.29633,-0.118534 -0.5588,-0.194734 -0.254,-0.0762 -0.508,-0.0762 -0.98214,0 -0.98214,1.397001 0,0.694267 0.25401,1.024467 0.26246,0.3302 0.72813,0.3302 0.39793,0 0.70273,-0.1016 0.3048,-0.110067 0.59267,-0.296333 v 1.075267 q -0.28787,0.186267 -0.6096,0.262467 -0.31327,0.08467 -0.79587,0.08467 z" id="path1874" />
                    <path d="m 193.30534,70.394228 q 0.21167,0 0.4064,-0.04233 0.19474,-0.04233 0.38947,-0.1016 v 0.939801 q -0.2032,0.08467 -0.508,0.143933 -0.29633,0.06773 -0.65193,0.06773 -0.41487,0 -0.74507,-0.135466 -0.32173,-0.135467 -0.51647,-0.465667 -0.18626,-0.338667 -0.18626,-0.931334 V 67.64256 h -0.60114 v -0.5334 l 0.69427,-0.423334 0.36407,-0.973667 h 0.80433 v 0.982134 h 1.2954 v 0.948267 h -1.2954 v 2.226734 q 0,0.262467 0.1524,0.397933 0.1524,0.127001 0.39793,0.127001 z" id="path1876" />
                    <path d="m 196.93754,66.609626 q 0.95674,0 1.51554,0.550334 0.5588,0.541866 0.5588,1.5494 v 0.6096 h -2.98027 q 0.0169,0.533401 0.31327,0.838201 0.3048,0.3048 0.8382,0.3048 0.44873,0 0.8128,-0.08467 0.36406,-0.09313 0.75353,-0.2794 v 0.973667 q -0.33867,0.169334 -0.71967,0.245534 -0.37253,0.08467 -0.90593,0.08467 -0.69427,0 -1.22767,-0.254 -0.5334,-0.262467 -0.8382,-0.7874 -0.3048,-0.524934 -0.3048,-1.320801 0,-0.8128 0.27094,-1.3462 0.2794,-0.541867 0.77046,-0.812801 0.49107,-0.270933 1.143,-0.270933 z m 0.008,0.897467 q -0.36407,0 -0.6096,0.237067 -0.23707,0.237067 -0.2794,0.7366 h 1.76953 q -0.008,-0.423333 -0.22013,-0.694267 -0.21167,-0.2794 -0.6604,-0.2794 z" id="path1878" />
                    <path d="m 202.61868,66.609626 q 0.0931,0 0.22013,0.0085 0.127,0.0085 0.2032,0.0254 l -0.0931,1.185334 q -0.0593,-0.01693 -0.1778,-0.0254 -0.11007,-0.01693 -0.19474,-0.01693 -0.32173,0 -0.61806,0.118534 -0.29634,0.110066 -0.4826,0.364066 -0.1778,0.254 -0.1778,0.694267 v 2.353735 h -1.26154 V 66.69433 h 0.95674 l 0.18626,0.778933 h 0.0593 q 0.2032,-0.3556 0.5588,-0.6096 0.3556,-0.254 0.82127,-0.254 z" id="path1880" />
                    <path d="m 204.51521,64.882425 q 0.2794,0 0.4826,0.135467 0.2032,0.127 0.2032,0.4826 0,0.347134 -0.2032,0.4826 -0.2032,0.135467 -0.4826,0.135467 -0.28786,0 -0.49106,-0.135467 -0.19474,-0.135466 -0.19474,-0.4826 0,-0.3556 0.19474,-0.4826 0.2032,-0.135467 0.49106,-0.135467 z m 0.62654,1.811868 v 4.622802 h -1.26154 v -4.622802 z" id="path1882" />
                    <path d="m 209.68835,69.945494 q 0,0.702734 -0.49953,1.083734 -0.49107,0.372533 -1.4732,0.372533 -0.4826,0 -0.82974,-0.06773 -0.34713,-0.05927 -0.69426,-0.2032 V 70.08943 q 0.37253,0.169334 0.80433,0.279401 0.4318,0.110066 0.762,0.110066 0.37253,0 0.52493,-0.110066 0.16087,-0.110067 0.16087,-0.287867 0,-0.118534 -0.0677,-0.211667 -0.0593,-0.09313 -0.27094,-0.211667 -0.21166,-0.118533 -0.6604,-0.3048 -0.4318,-0.186267 -0.7112,-0.364067 -0.2794,-0.186266 -0.41486,-0.440267 -0.13547,-0.262466 -0.13547,-0.651933 0,-0.643467 0.49953,-0.965201 0.49954,-0.321733 1.32927,-0.321733 0.4318,0 0.82127,0.08467 0.38947,0.08467 0.80433,0.2794 l -0.381,0.905934 q -0.33866,-0.143934 -0.64347,-0.237067 -0.3048,-0.1016 -0.61806,-0.1016 -0.5588,0 -0.5588,0.3048 0,0.110067 0.0677,0.2032 0.0762,0.08467 0.2794,0.186267 0.21167,0.1016 0.61807,0.270933 0.39793,0.160867 0.6858,0.338667 0.28787,0.169333 0.44027,0.4318 0.16086,0.254 0.16086,0.668867 z" id="path1884" />
                    <path d="m 212.61782,70.394228 q 0.21166,0 0.4064,-0.04233 0.19473,-0.04233 0.38946,-0.1016 v 0.939801 q -0.2032,0.08467 -0.508,0.143933 -0.29633,0.06773 -0.65193,0.06773 -0.41487,0 -0.74507,-0.135466 -0.32173,-0.135467 -0.51646,-0.465667 -0.18627,-0.338667 -0.18627,-0.931334 V 67.64256 h -0.60113 v -0.5334 l 0.69426,-0.423334 0.36407,-0.973667 h 0.80433 v 0.982134 h 1.2954 v 0.948267 h -1.2954 v 2.226734 q 0,0.262467 0.1524,0.397933 0.1524,0.127001 0.39794,0.127001 z" id="path1886" />
                    <path d="m 214.98002,64.882425 q 0.2794,0 0.4826,0.135467 0.2032,0.127 0.2032,0.4826 0,0.347134 -0.2032,0.4826 -0.2032,0.135467 -0.4826,0.135467 -0.28787,0 -0.49107,-0.135467 -0.19473,-0.135466 -0.19473,-0.4826 0,-0.3556 0.19473,-0.4826 0.2032,-0.135467 0.49107,-0.135467 z m 0.62653,1.811868 v 4.622802 h -1.26153 v -4.622802 z" id="path1888" />
                    <path d="m 218.80696,71.401761 q -1.03294,0 -1.6002,-0.567267 -0.5588,-0.575733 -0.5588,-1.8034 0,-0.846667 0.28786,-1.380068 0.28787,-0.5334 0.79587,-0.7874 0.51647,-0.254 1.18533,-0.254 0.47414,0 0.82127,0.09313 0.3556,0.09313 0.61807,0.220134 l -0.37254,0.973667 q -0.29633,-0.118534 -0.5588,-0.194734 -0.254,-0.0762 -0.508,-0.0762 -0.98213,0 -0.98213,1.397001 0,0.694267 0.254,1.024467 0.26247,0.3302 0.72813,0.3302 0.39794,0 0.70274,-0.1016 0.3048,-0.110067 0.59266,-0.296333 v 1.075267 q -0.28786,0.186267 -0.6096,0.262467 -0.31326,0.08467 -0.79586,0.08467 z" id="path1890" />
                    <path d="m 224.50503,69.945494 q 0,0.702734 -0.49954,1.083734 -0.49107,0.372533 -1.4732,0.372533 -0.4826,0 -0.82973,-0.06773 -0.34714,-0.05927 -0.69427,-0.2032 V 70.08943 q 0.37253,0.169334 0.80433,0.279401 0.4318,0.110066 0.762,0.110066 0.37254,0 0.52494,-0.110066 0.16086,-0.110067 0.16086,-0.287867 0,-0.118534 -0.0677,-0.211667 -0.0593,-0.09313 -0.27093,-0.211667 -0.21167,-0.118533 -0.6604,-0.3048 -0.4318,-0.186267 -0.7112,-0.364067 -0.2794,-0.186266 -0.41487,-0.440267 -0.13547,-0.262466 -0.13547,-0.651933 0,-0.643467 0.49954,-0.965201 0.49953,-0.321733 1.32926,-0.321733 0.4318,0 0.82127,0.08467 0.38947,0.08467 0.80434,0.2794 l -0.381,0.905934 q -0.33867,-0.143934 -0.64347,-0.237067 -0.3048,-0.1016 -0.61807,-0.1016 -0.5588,0 -0.5588,0.3048 0,0.110067 0.0677,0.2032 0.0762,0.08467 0.2794,0.186267 0.21167,0.1016 0.61807,0.270933 0.39793,0.160867 0.6858,0.338667 0.28787,0.169333 0.44027,0.4318 0.16087,0.254 0.16087,0.668867 z" id="path1892" />
                </g>
            </g>
            <g id="g2059" transform="matrix(0.4,0,0,0.4,11.644566,1.2658183)">
                <rect style="fill:#ececec;fill-opacity:1;stroke:#041058;stroke-width:1.32292;stroke-linecap:round;stroke-linejoin:round;stroke-opacity:1" id="rect1749-9" width="77.231628" height="57.231625" x="107.91194" y="40.578297" />
                <g aria-label="Support Needed" id="text853" style="font-weight:bold;font-size:8.46667px;font-family:'Noto Sans';-inkscape-font-specification:'Noto Sans, Bold';text-align:center;text-anchor:middle;stroke-width:2;stroke-linecap:round;stroke-linejoin:round" transform="translate(25.953656,7.143963)">
                    <path d="m 107.9884,58.104678 q 0,0.804333 -0.5842,1.286934 -0.57574,0.474133 -1.64254,0.474133 -0.95673,0 -1.71026,-0.364067 v -1.1938 q 0.4318,0.186266 0.889,0.347133 0.46566,0.1524 0.92286,0.1524 0.47414,0 0.66887,-0.1778 0.2032,-0.186267 0.2032,-0.465667 0,-0.2286 -0.16087,-0.389466 -0.1524,-0.160867 -0.41486,-0.296334 -0.26247,-0.143933 -0.60114,-0.3048 -0.21166,-0.1016 -0.4572,-0.237067 -0.24553,-0.143933 -0.47413,-0.347133 -0.22013,-0.211667 -0.36407,-0.508 -0.14393,-0.296334 -0.14393,-0.711201 0,-0.8128 0.55033,-1.261534 0.55034,-0.4572 1.4986,-0.4572 0.47414,0 0.89747,0.110067 0.4318,0.110067 0.89747,0.313267 l -0.41487,0.999067 q -0.41487,-0.169334 -0.74507,-0.262467 -0.3302,-0.09313 -0.67733,-0.09313 -0.36407,0 -0.5588,0.169333 -0.19473,0.169333 -0.19473,0.440267 0,0.321733 0.28786,0.508 0.28787,0.186267 0.85514,0.4572 0.46566,0.220134 0.7874,0.4572 0.3302,0.237067 0.508,0.558801 0.1778,0.321733 0.1778,0.795867 z" id="path1825" />
                    <path d="m 113.22927,55.158276 v 4.622802 h -0.9652 l -0.16933,-0.592667 h -0.0677 q -0.22013,0.355601 -0.6096,0.516467 -0.381,0.160867 -0.8128,0.160867 -0.74506,0 -1.1938,-0.397933 -0.44873,-0.406401 -0.44873,-1.295401 v -3.014135 h 1.26153 v 2.700868 q 0,0.491067 0.1778,0.745067 0.1778,0.254 0.56727,0.254 0.57573,0 0.7874,-0.389467 0.21167,-0.397933 0.21167,-1.134533 v -2.175935 z" id="path1827" />
                    <path d="m 117.12394,55.07361 q 0.77893,0 1.26153,0.6096 0.4826,0.601134 0.4826,1.778001 0,1.176867 -0.49953,1.794934 -0.49954,0.6096 -1.27847,0.6096 -0.49953,0 -0.79587,-0.1778 -0.29633,-0.186267 -0.4826,-0.414867 h -0.0677 q 0.0677,0.3556 0.0677,0.677334 v 1.862667 h -1.26153 v -6.654803 h 1.02447 l 0.1778,0.601134 h 0.0593 q 0.18627,-0.2794 0.49954,-0.4826 0.31326,-0.2032 0.8128,-0.2032 z m -0.4064,1.007534 q -0.49107,0 -0.69427,0.3048 -0.19473,0.3048 -0.21167,0.931333 v 0.135467 q 0,0.668867 0.19474,1.032934 0.2032,0.3556 0.72813,0.3556 0.4318,0 0.635,-0.3556 0.21167,-0.364067 0.21167,-1.041401 0,-1.363133 -0.8636,-1.363133 z" id="path1829" />
                    <path d="m 122.48333,55.07361 q 0.77894,0 1.26154,0.6096 0.4826,0.601134 0.4826,1.778001 0,1.176867 -0.49954,1.794934 -0.49953,0.6096 -1.27846,0.6096 -0.49954,0 -0.79587,-0.1778 -0.29633,-0.186267 -0.4826,-0.414867 h -0.0677 q 0.0677,0.3556 0.0677,0.677334 v 1.862667 h -1.26153 v -6.654803 h 1.02446 l 0.1778,0.601134 h 0.0593 q 0.18627,-0.2794 0.49953,-0.4826 0.31327,-0.2032 0.8128,-0.2032 z m -0.4064,1.007534 q -0.49106,0 -0.69426,0.3048 -0.19474,0.3048 -0.21167,0.931333 v 0.135467 q 0,0.668867 0.19473,1.032934 0.2032,0.3556 0.72814,0.3556 0.4318,0 0.635,-0.3556 0.21166,-0.364067 0.21166,-1.041401 0,-1.363133 -0.8636,-1.363133 z" id="path1831" />
                    <path d="m 129.46833,57.461211 q 0,1.151467 -0.6096,1.778 -0.60113,0.626534 -1.64253,0.626534 -0.64347,0 -1.15147,-0.2794 -0.49953,-0.2794 -0.7874,-0.8128 -0.28787,-0.541867 -0.28787,-1.312334 0,-1.151467 0.60114,-1.769534 0.60113,-0.618067 1.651,-0.618067 0.65193,0 1.15146,0.2794 0.49954,0.2794 0.7874,0.8128 0.28787,0.524934 0.28787,1.295401 z m -3.19193,0 q 0,0.6858 0.22013,1.0414 0.2286,0.347134 0.7366,0.347134 0.49953,0 0.71967,-0.347134 0.2286,-0.3556 0.2286,-1.0414 0,-0.685801 -0.2286,-1.024467 -0.22014,-0.347134 -0.72814,-0.347134 -0.49953,0 -0.72813,0.347134 -0.22013,0.338666 -0.22013,1.024467 z" id="path1833" />
                    <path d="m 133.09206,55.07361 q 0.0931,0 0.22013,0.0085 0.127,0.0085 0.2032,0.0254 l -0.0931,1.185334 q -0.0593,-0.01693 -0.1778,-0.0254 -0.11007,-0.01693 -0.19473,-0.01693 -0.32174,0 -0.61807,0.118533 -0.29633,0.110067 -0.4826,0.364067 -0.1778,0.254 -0.1778,0.694267 v 2.353734 h -1.26153 v -4.622802 h 0.95673 l 0.18627,0.778934 h 0.0593 q 0.2032,-0.3556 0.5588,-0.6096 0.3556,-0.254 0.82127,-0.254 z" id="path1835" />
                    <path d="m 136.30093,58.858211 q 0.21167,0 0.4064,-0.04233 0.19474,-0.04233 0.38947,-0.1016 v 0.9398 q -0.2032,0.08467 -0.508,0.143934 -0.29633,0.06773 -0.65193,0.06773 -0.41487,0 -0.74507,-0.135467 -0.32173,-0.135466 -0.51647,-0.465667 -0.18626,-0.338666 -0.18626,-0.931333 v -2.226734 h -0.60114 v -0.533401 l 0.69427,-0.423333 0.36407,-0.973667 h 0.80433 v 0.982133 h 1.2954 v 0.948268 h -1.2954 v 2.226734 q 0,0.262467 0.1524,0.397933 0.1524,0.127 0.39793,0.127 z" id="path1837" />
                    <path d="m 110.32944,70.364416 h -1.6256 l -2.63314,-4.572002 h -0.0339 q 0.0169,0.4318 0.0339,0.8636 0.0254,0.431801 0.0423,0.863601 v 2.844801 h -1.143 v -6.045203 h 1.61713 l 2.62467,4.529669 h 0.0254 q -0.008,-0.423334 -0.0254,-0.8382 -0.0169,-0.414867 -0.0339,-0.829734 v -2.861735 h 1.15147 z" id="path1839" />
                    <path d="m 113.65684,65.656947 q 0.95673,0 1.51553,0.550334 0.5588,0.541867 0.5588,1.549401 v 0.6096 h -2.98027 q 0.0169,0.5334 0.31327,0.8382 0.3048,0.3048 0.8382,0.3048 0.44873,0 0.8128,-0.08467 0.36407,-0.09313 0.75354,-0.279401 v 0.973667 q -0.33867,0.169334 -0.71967,0.245534 -0.37254,0.08467 -0.90594,0.08467 -0.69426,0 -1.22766,-0.254001 -0.5334,-0.262466 -0.8382,-0.7874 -0.3048,-0.524933 -0.3048,-1.3208 0,-0.812801 0.27093,-1.346201 0.2794,-0.541867 0.77047,-0.8128 0.49106,-0.270934 1.143,-0.270933 z m 0.008,0.897467 q -0.36406,0 -0.6096,0.237067 -0.23706,0.237067 -0.2794,0.7366 h 1.76954 q -0.008,-0.423333 -0.22014,-0.694267 -0.21166,-0.2794 -0.6604,-0.2794 z" id="path1841" />
                    <path d="m 118.66064,65.656947 q 0.95673,0 1.51553,0.550334 0.5588,0.541867 0.5588,1.549401 v 0.6096 h -2.98027 q 0.0169,0.5334 0.31327,0.8382 0.3048,0.3048 0.8382,0.3048 0.44873,0 0.8128,-0.08467 0.36407,-0.09313 0.75353,-0.279401 v 0.973667 q -0.33866,0.169334 -0.71966,0.245534 -0.37254,0.08467 -0.90594,0.08467 -0.69426,0 -1.22766,-0.254001 -0.5334,-0.262466 -0.8382,-0.7874 -0.3048,-0.524933 -0.3048,-1.3208 0,-0.812801 0.27093,-1.346201 0.2794,-0.541867 0.77047,-0.8128 0.49106,-0.270934 1.143,-0.270933 z m 0.008,0.897467 q -0.36406,0 -0.6096,0.237067 -0.23706,0.237067 -0.2794,0.7366 h 1.76954 q -0.008,-0.423333 -0.22014,-0.694267 -0.21166,-0.2794 -0.6604,-0.2794 z" id="path1843" />
                    <path d="m 123.22417,70.449083 q -0.77047,0 -1.26154,-0.601134 -0.4826,-0.6096 -0.4826,-1.786467 0,-1.185334 0.49107,-1.794934 0.49107,-0.609601 1.28693,-0.609601 0.49954,0 0.82127,0.194734 0.32173,0.194733 0.508,0.4826 h 0.0423 q -0.0254,-0.135467 -0.0593,-0.389467 -0.0339,-0.262467 -0.0339,-0.5334 v -1.481667 h 1.26153 v 6.434669 h -0.9652 l -0.24553,-0.601134 h -0.0508 q -0.18627,0.287867 -0.49953,0.491067 -0.31327,0.194734 -0.8128,0.194734 z m 0.44026,-1.007534 q 0.52494,0 0.7366,-0.3048 0.21167,-0.313267 0.22014,-0.931334 v -0.135467 q 0,-0.677333 -0.21167,-1.032933 -0.2032,-0.355601 -0.762,-0.355601 -0.41487,0 -0.65193,0.364067 -0.23707,0.3556 -0.23707,1.032934 0,0.677334 0.23707,1.024467 0.23706,0.338667 0.66886,0.338667 z" id="path1845" />
                    <path d="m 129.02383,65.656947 q 0.95674,0 1.51554,0.550334 0.5588,0.541867 0.5588,1.549401 v 0.6096 h -2.98027 q 0.0169,0.5334 0.31327,0.8382 0.3048,0.3048 0.8382,0.3048 0.44873,0 0.8128,-0.08467 0.36406,-0.09313 0.75353,-0.279401 v 0.973667 q -0.33867,0.169334 -0.71967,0.245534 -0.37253,0.08467 -0.90593,0.08467 -0.69427,0 -1.22767,-0.254001 -0.5334,-0.262466 -0.8382,-0.7874 -0.3048,-0.524933 -0.3048,-1.3208 0,-0.812801 0.27093,-1.346201 0.2794,-0.541867 0.77047,-0.8128 0.49107,-0.270934 1.143,-0.270933 z m 0.008,0.897467 q -0.36407,0 -0.6096,0.237067 -0.23707,0.237067 -0.2794,0.7366 h 1.76953 q -0.008,-0.423333 -0.22013,-0.694267 -0.21167,-0.2794 -0.6604,-0.2794 z" id="path1847" />
                    <path d="m 133.58736,70.449083 q -0.77046,0 -1.26153,-0.601134 -0.4826,-0.6096 -0.4826,-1.786467 0,-1.185334 0.49107,-1.794934 0.49106,-0.609601 1.28693,-0.609601 0.49953,0 0.82127,0.194734 0.32173,0.194733 0.508,0.4826 h 0.0423 q -0.0254,-0.135467 -0.0593,-0.389467 -0.0339,-0.262467 -0.0339,-0.5334 v -1.481667 h 1.26153 v 6.434669 h -0.9652 l -0.24553,-0.601134 h -0.0508 q -0.18627,0.287867 -0.49954,0.491067 -0.31326,0.194734 -0.8128,0.194734 z m 0.44027,-1.007534 q 0.52493,0 0.7366,-0.3048 0.21167,-0.313267 0.22013,-0.931334 v -0.135467 q 0,-0.677333 -0.21166,-1.032933 -0.2032,-0.355601 -0.762,-0.355601 -0.41487,0 -0.65194,0.364067 -0.23706,0.3556 -0.23706,1.032934 0,0.677334 0.23706,1.024467 0.23707,0.338667 0.66887,0.338667 z" id="path1849" />
                </g>
            </g>
            <g id="g2082" transform="matrix(0.4,0,0,0.4,4.6984047,1.6026433)">
                <rect style="fill:#ececec;fill-opacity:1;stroke:#041058;stroke-width:1.32292;stroke-linecap:round;stroke-linejoin:round;stroke-opacity:1" id="rect1749-2" width="77.231628" height="57.231625" x="14.972801" y="39.736233" />
                <g aria-label="Individual Abilities" id="text243" style="font-weight:bold;font-size:8.46667px;font-family:'Noto Sans';-inkscape-font-specification:'Noto Sans, Bold';text-align:center;text-anchor:middle;stroke-width:2;stroke-linecap:round;stroke-linejoin:round" transform="translate(-5.3327311,7.8833316)">
                    <path d="m 40.730719,58.352047 h -2.751667 v -0.728133 l 0.7366,-0.338667 v -3.9116 l -0.7366,-0.338666 v -0.728134 h 2.751667 v 0.728134 l -0.7366,0.338666 v 3.9116 l 0.7366,0.338667 z" id="path1786" />
                    <path d="m 44.286718,53.644581 q 0.745067,0 1.1938,0.4064 0.448733,0.397933 0.448733,1.286933 v 3.014133 H 44.667718 V 55.65118 q 0,-0.499533 -0.1778,-0.745066 -0.1778,-0.254 -0.567266,-0.254 -0.575734,0 -0.7874,0.397933 -0.211667,0.389467 -0.211667,1.126067 v 2.175933 h -1.261533 v -4.6228 h 0.9652 l 0.169333,0.592667 h 0.06773 q 0.220134,-0.3556 0.601134,-0.516467 0.389466,-0.160866 0.821266,-0.160866 z" id="path1788" />
                    <path d="m 48.689381,58.436714 q -0.770467,0 -1.261533,-0.601134 -0.4826,-0.6096 -0.4826,-1.786466 0,-1.185334 0.491066,-1.794933 0.491067,-0.6096 1.286934,-0.6096 0.499533,0 0.821266,0.194733 0.321734,0.194733 0.508,0.4826 h 0.04233 q -0.0254,-0.135467 -0.05927,-0.389467 -0.03387,-0.262466 -0.03387,-0.5334 v -1.481666 h 1.261534 v 6.434666 h -0.9652 l -0.245534,-0.601133 h -0.0508 q -0.186266,0.287866 -0.499533,0.491066 -0.313267,0.194734 -0.8128,0.194734 z m 0.440267,-1.007534 q 0.524933,0 0.7366,-0.3048 0.211666,-0.313266 0.220133,-0.931333 V 56.05758 q 0,-0.677333 -0.211667,-1.032933 -0.2032,-0.3556 -0.762,-0.3556 -0.414866,0 -0.651933,0.364067 -0.237067,0.3556 -0.237067,1.032933 0,0.677333 0.237067,1.024467 0.237067,0.338666 0.668867,0.338666 z" id="path1790" />
                    <path d="m 53.219043,51.917381 q 0.2794,0 0.4826,0.135466 0.2032,0.127 0.2032,0.4826 0,0.347134 -0.2032,0.4826 -0.2032,0.135467 -0.4826,0.135467 -0.287867,0 -0.491067,-0.135467 -0.194733,-0.135466 -0.194733,-0.4826 0,-0.3556 0.194733,-0.4826 0.2032,-0.135466 0.491067,-0.135466 z m 0.626533,1.811866 v 4.6228 h -1.261533 v -4.6228 z" id="path1792" />
                    <path d="m 56.267045,58.352047 -1.761067,-4.6228 h 1.3208 l 0.889,2.633133 q 0.0762,0.237067 0.118533,0.491067 0.0508,0.254 0.05927,0.4572 h 0.03387 q 0.0254,-0.4572 0.186266,-0.948267 l 0.889,-2.633133 h 1.3208 l -1.761066,4.6228 z" id="path1794" />
                    <path d="m 60.618914,51.917381 q 0.2794,0 0.4826,0.135466 0.2032,0.127 0.2032,0.4826 0,0.347134 -0.2032,0.4826 -0.2032,0.135467 -0.4826,0.135467 -0.287867,0 -0.491067,-0.135467 -0.194733,-0.135466 -0.194733,-0.4826 0,-0.3556 0.194733,-0.4826 0.2032,-0.135466 0.491067,-0.135466 z m 0.626533,1.811866 v 4.6228 h -1.261533 v -4.6228 z" id="path1796" />
                    <path d="m 64.030983,58.436714 q -0.770466,0 -1.261533,-0.601134 -0.4826,-0.6096 -0.4826,-1.786466 0,-1.185334 0.491067,-1.794933 0.491066,-0.6096 1.286933,-0.6096 0.499533,0 0.821267,0.194733 0.321733,0.194733 0.508,0.4826 h 0.04233 q -0.0254,-0.135467 -0.05927,-0.389467 -0.03387,-0.262466 -0.03387,-0.5334 v -1.481666 h 1.261533 v 6.434666 h -0.9652 l -0.245533,-0.601133 h -0.0508 q -0.186267,0.287866 -0.499534,0.491066 -0.313266,0.194734 -0.8128,0.194734 z M 64.47125,57.42918 q 0.524933,0 0.7366,-0.3048 0.211667,-0.313266 0.220133,-0.931333 V 56.05758 q 0,-0.677333 -0.211666,-1.032933 -0.2032,-0.3556 -0.762,-0.3556 -0.414867,0 -0.651934,0.364067 -0.237066,0.3556 -0.237066,1.032933 0,0.677333 0.237066,1.024467 0.237067,0.338666 0.668867,0.338666 z" id="path1798" />
                    <path d="m 72.167444,53.729247 v 4.6228 h -0.9652 L 71.032911,57.75938 h -0.06773 q -0.220133,0.3556 -0.6096,0.516467 -0.381,0.160867 -0.8128,0.160867 -0.745066,0 -1.1938,-0.397934 -0.448733,-0.4064 -0.448733,-1.2954 v -3.014133 h 1.261533 v 2.700867 q 0,0.491066 0.1778,0.745066 0.1778,0.254 0.567267,0.254 0.575733,0 0.7874,-0.389466 0.211667,-0.397934 0.211667,-1.134534 v -2.175933 z" id="path1800" />
                    <path d="m 75.384773,53.636114 q 0.931333,0 1.4224,0.4064 0.499533,0.397933 0.499533,1.227666 v 3.081867 h -0.880533 l -0.245534,-0.626533 h -0.03387 q -0.296334,0.372533 -0.626534,0.541866 -0.3302,0.169334 -0.905933,0.169334 -0.618067,0 -1.024467,-0.3556 -0.4064,-0.364067 -0.4064,-1.109134 0,-0.7366 0.516467,-1.083733 0.516467,-0.3556 1.5494,-0.389467 l 0.804333,-0.0254 v -0.2032 q 0,-0.364066 -0.194733,-0.5334 -0.186267,-0.169333 -0.524933,-0.169333 -0.338667,0 -0.6604,0.1016 -0.321734,0.09313 -0.643467,0.237067 l -0.414867,-0.855133 q 0.372534,-0.194734 0.821267,-0.3048 0.4572,-0.110067 0.948267,-0.110067 z m 0.1778,2.5908 q -0.6096,0.01693 -0.846667,0.220133 -0.237067,0.2032 -0.237067,0.5334 0,0.287867 0.169334,0.414867 0.169333,0.118533 0.440266,0.118533 0.4064,0 0.6858,-0.237067 0.2794,-0.245533 0.2794,-0.6858 v -0.381 z" id="path1802" />
                    <path d="m 79.863641,58.352047 h -1.261533 v -6.434666 h 1.261533 z" id="path1804" />
                    <path d="M 46.369513,68.93538 45.929246,67.496046 H 43.727913 L 43.287646,68.93538 H 41.90758 l 2.1336,-6.0706 h 1.566333 l 2.142067,6.0706 z M 45.18418,65.015313 q -0.04233,-0.143933 -0.110067,-0.364066 -0.06773,-0.220134 -0.135467,-0.448734 -0.06773,-0.2286 -0.110066,-0.397933 -0.04233,0.169333 -0.118534,0.423333 -0.06773,0.245534 -0.135466,0.474134 -0.05927,0.220133 -0.09313,0.313266 l -0.4318,1.405467 h 1.5748 z" id="path1806" />
                    <path d="m 49.671517,63.999313 q 0,0.262467 -0.01693,0.516467 -0.01693,0.254 -0.03387,0.397933 h 0.0508 q 0.186267,-0.287866 0.499534,-0.4826 0.313266,-0.2032 0.8128,-0.2032 0.778933,0 1.261533,0.6096 0.4826,0.601134 0.4826,1.778 0,1.185333 -0.491067,1.794933 -0.491066,0.6096 -1.286933,0.6096 -0.508,0 -0.804333,-0.1778 -0.287867,-0.186266 -0.474134,-0.414866 h -0.08467 l -0.211667,0.508 h -0.9652 v -6.434667 h 1.261533 z m 0.905934,1.236134 q -0.491067,0 -0.694267,0.3048 -0.194733,0.3048 -0.211667,0.931333 v 0.135467 q 0,0.668866 0.194734,1.032933 0.2032,0.3556 0.728133,0.3556 0.389467,0 0.618067,-0.3556 0.2286,-0.364067 0.2286,-1.0414 0,-0.677333 -0.237067,-1.016 -0.2286,-0.347133 -0.626533,-0.347133 z" id="path1808" />
                    <path d="m 54.404379,62.500713 q 0.2794,0 0.4826,0.135467 0.2032,0.127 0.2032,0.4826 0,0.347133 -0.2032,0.4826 -0.2032,0.135467 -0.4826,0.135467 -0.287867,0 -0.491067,-0.135467 -0.194733,-0.135467 -0.194733,-0.4826 0,-0.3556 0.194733,-0.4826 0.2032,-0.135467 0.491067,-0.135467 z m 0.626533,1.811867 v 4.6228 h -1.261533 v -4.6228 z" id="path1810" />
                    <path d="m 57.613248,68.93538 h -1.261533 v -6.434667 h 1.261533 z" id="path1812" />
                    <path d="m 59.56905,62.500713 q 0.2794,0 0.4826,0.135467 0.2032,0.127 0.2032,0.4826 0,0.347133 -0.2032,0.4826 -0.2032,0.135467 -0.4826,0.135467 -0.287867,0 -0.491067,-0.135467 -0.194733,-0.135467 -0.194733,-0.4826 0,-0.3556 0.194733,-0.4826 0.2032,-0.135467 0.491067,-0.135467 z m 0.626533,1.811867 v 4.6228 H 58.93405 v -4.6228 z" id="path1814" />
                    <path d="m 63.463719,68.012513 q 0.211667,0 0.4064,-0.04233 0.194734,-0.04233 0.389467,-0.1016 v 0.9398 q -0.2032,0.08467 -0.508,0.143933 -0.296333,0.06773 -0.651933,0.06773 -0.414867,0 -0.745067,-0.135466 -0.321733,-0.135467 -0.516467,-0.465667 -0.186266,-0.338667 -0.186266,-0.931333 v -2.226733 h -0.601134 v -0.5334 l 0.694267,-0.423334 0.364067,-0.973666 h 0.804333 v 0.982133 h 1.2954 v 0.948267 h -1.2954 v 2.226733 q 0,0.262466 0.1524,0.397933 0.1524,0.127 0.397933,0.127 z" id="path1816" />
                    <path d="m 65.82592,62.500713 q 0.2794,0 0.4826,0.135467 0.2032,0.127 0.2032,0.4826 0,0.347133 -0.2032,0.4826 -0.2032,0.135467 -0.4826,0.135467 -0.287867,0 -0.491067,-0.135467 -0.194733,-0.135467 -0.194733,-0.4826 0,-0.3556 0.194733,-0.4826 0.2032,-0.135467 0.491067,-0.135467 z m 0.626533,1.811867 v 4.6228 H 65.19092 v -4.6228 z" id="path1818" />
                    <path d="m 69.678256,64.227913 q 0.956734,0 1.515533,0.550334 0.5588,0.541866 0.5588,1.5494 v 0.6096 h -2.980266 q 0.01693,0.533399 0.313267,0.838199 0.3048,0.3048 0.8382,0.3048 0.448733,0 0.8128,-0.08467 0.364066,-0.09313 0.753533,-0.2794 v 0.973666 q -0.338667,0.169334 -0.719667,0.245534 -0.372533,0.08467 -0.905933,0.08467 -0.694267,0 -1.227667,-0.254 -0.5334,-0.262466 -0.8382,-0.7874 -0.3048,-0.524933 -0.3048,-1.320799 0,-0.8128 0.270934,-1.3462 0.2794,-0.541867 0.770466,-0.8128 0.491067,-0.270934 1.143,-0.270934 z m 0.0085,0.897467 q -0.364067,0 -0.6096,0.237067 -0.237067,0.237066 -0.2794,0.7366 h 1.769533 q -0.0085,-0.423334 -0.220133,-0.694267 -0.211667,-0.2794 -0.6604,-0.2794 z" id="path1820" />
                    <path d="m 76.002852,67.56378 q 0,0.702733 -0.499534,1.083733 -0.491066,0.372533 -1.473199,0.372533 -0.4826,0 -0.829734,-0.06773 -0.347133,-0.05927 -0.694266,-0.2032 v -1.0414 q 0.372533,0.169333 0.804333,0.2794 0.4318,0.110067 0.762,0.110067 0.372533,0 0.524933,-0.110067 0.160867,-0.110067 0.160867,-0.287867 0,-0.118533 -0.06773,-0.211666 -0.05927,-0.09313 -0.270934,-0.211667 -0.211666,-0.118533 -0.6604,-0.3048 -0.4318,-0.186266 -0.7112,-0.364066 -0.2794,-0.186267 -0.414866,-0.440267 -0.135467,-0.262467 -0.135467,-0.651933 0,-0.643467 0.499533,-0.9652 0.499534,-0.321734 1.329267,-0.321734 0.4318,0 0.821267,0.08467 0.389466,0.08467 0.804333,0.2794 l -0.381,0.905933 q -0.338667,-0.143933 -0.643467,-0.237066 -0.3048,-0.1016 -0.618066,-0.1016 -0.5588,0 -0.5588,0.3048 0,0.110066 0.06773,0.2032 0.0762,0.08467 0.2794,0.186266 0.211667,0.1016 0.618067,0.270934 0.397933,0.160866 0.685799,0.338666 0.287867,0.169334 0.440267,0.4318 0.160867,0.254 0.160867,0.668867 z" id="path1822" />
                </g>
            </g>
            <path d="m 46.098306,26.748784 c -0.0327,0.0253 -0.47035,0.376575 -2.06745,1.661841 -0.62886,0.506813 -0.61323,0.492673 -0.59091,0.540303 0.0149,0.03051 2.67994,2.211818 2.70673,2.214795 0.0246,0.0037 0.0581,-0.0119 0.0685,-0.03052 0.004,-0.0097 0.007,-0.190519 0.007,-0.528395 v -0.514255 h 1.97218 1.97219 v 0.517231 0.517977 l 0.0186,0.01786 c 0.0126,0.01339 0.026,0.0186 0.0476,0.0186 0.0275,0 0.0908,-0.05061 1.36787,-1.096236 0.81864,-0.670541 1.34182,-1.104421 1.34853,-1.117072 0.0223,-0.04763 0.038,-0.03349 -0.59092,-0.540304 -1.79729,-1.446017 -2.07488,-1.669282 -2.09348,-1.679702 -0.0298,-0.01712 -0.0692,-0.0082 -0.0856,0.01935 -0.0119,0.0201 -0.0126,0.064 -0.0126,0.535838 v 0.514255 h -1.97218 -1.97218 v -0.513511 c 0,-0.436856 -0.002,-0.517232 -0.0112,-0.535093 -0.0208,-0.04019 -0.0625,-0.04168 -0.11312,-0.003 z" id="path2086" style="fill:#3754F6;fill-opacity:0.5;stroke:none;stroke-width:0.00074422" />
            <path d="m 90.220126,26.464261 c -0.0327,0.0253 -0.47035,0.376575 -2.06744,1.661841 -0.62887,0.506813 -0.61324,0.492673 -0.59092,0.540303 0.0149,0.03051 2.67994,2.211818 2.70673,2.214794 0.0246,0.0037 0.0581,-0.0119 0.0685,-0.03052 0.004,-0.0097 0.007,-0.190518 0.007,-0.528394 v -0.514251 h 1.97218 1.97219 v 0.517231 0.517976 l 0.0186,0.01786 c 0.0126,0.01339 0.026,0.0186 0.0476,0.0186 0.0275,0 0.0908,-0.05061 1.36787,-1.096235 0.81864,-0.670541 1.34182,-1.104421 1.34853,-1.117073 0.0223,-0.04763 0.038,-0.03349 -0.59092,-0.540303 -1.79729,-1.446017 -2.07488,-1.669283 -2.09348,-1.679702 -0.0298,-0.01712 -0.0692,-0.0082 -0.0856,0.01935 -0.0119,0.0201 -0.0126,0.064 -0.0126,0.535838 v 0.514255 h -1.97218 -1.97218 V 27.00232 c 0,-0.436856 -0.002,-0.517232 -0.0112,-0.535093 -0.0208,-0.04019 -0.0625,-0.04168 -0.11312,-0.003 z" id="path2086-5" style="fill:#3754F6;fill-opacity:0.5;stroke:none;stroke-width:0.00074422" />
        </g>
    </g>
</svg>