<?xml version="1.0" encoding="UTF-8"?>
<svg id="Escape_Room_Logo_Black_Transparent_" data-name="Escape Room Logo (Black, Transparent)" xmlns="http://www.w3.org/2000/svg" version="1.1" viewBox="0 0 432 432">
  <defs>
    <style>
      .cls-1 {
        fill: #000;
        stroke-width: 0px;
      }
    </style>
  </defs>
  <g id="Escape_Room_Logo" data-name="Escape Room Logo">
    <path class="cls-1" d="M.05,166.84C.1,252.32.14,337.8,0,423.28c-.01,6.5,3.43,9.23,9.16,9.23,137.95-.1,275.91-.1,413.86,0,5.86,0,8.98-3.2,8.98-8.84-.11-138.43-.1-276.87-.02-415.3,0-4.27-1.31-7.25-5.32-8.89H5.35C1.51,1.08-.17,3.87.04,8.09c.22,4.43.05,8.89.05,13.33,0,1.94,0,3.88,0,5.73h14.67v-12.82h402.36v403.29H14.97v-249.27h28.59v3.8c0,72.63,0,145.26,0,217.89,0,5.66,2.65,8.36,8.22,8.36,80.82,0,161.64,0,242.46,0h3.01v-14.77h-74.3c6.53-3.97,12.77-7.76,18.77-11.41-4.06-4.05-7.65-7.63-11.28-11.25-16.27,10.35-31.46,16.37-39.12,15.31,0-.8,0-1.63,0-2.47,0-3.49,0-6.98,0-10.32,32.94-7.14,50.67-27.83,55.26-60.29h13.07c-.56,8.92-2.26,17.33-5.59,25.38-3.32,8.03-7.55,15.53-13.3,21.88,3.99,3.97,7.86,7.82,11.83,11.77,9.3-9.76,16.34-21.14,20.54-34.14,4.36-13.46,5.92-27.19,4.08-41.38-1.44-11.14-4.64-21.76-9.41-31.69-7.72-16.07-19.91-28.51-35.4-37.39-23.45-13.45-48.16-16.74-74.24-8.56-13.63,4.28-25.72,11.07-36.39,20.47-.46.41-.7,1.88-.37,2.23,3.28,3.5,6.71,6.87,10.08,10.26,28.86-27.03,69.09-26.24,95.8-7.16,21.86,15.61,33.27,43.47,31.81,60.68h-12.58c-1.27-18.02-7.29-33.59-20.9-46.02-2.72,3.16-5.22,6.06-7.63,8.87.26.49.32.68.44.81,11.16,12.56,17.26,26.88,15.55,43.99-1.28,12.83-6.33,24.13-15.39,33.07-10.88,10.73-24.13,16.49-39.88,14.91-9.92-1-18.51-5.11-26.45-11.04,3.36-3.76,6.59-7.38,9.23-10.34,5.57,2.34,10.02,4.21,15.32,6.43,0-4.67.08-8.33-.08-11.99-.03-.66-.93-1.55-1.63-1.87-4.27-1.92-8.16-4.31-10.97-8.14-3.94-5.37-6.38-11.37-6.32-18.04.04-5.33,1.78-10.37,4.63-14.9,4.98-7.91,12.33-12.66,21.57-12.19,17.19.86,27.37,18.3,24.08,32.93-2.02,9-6.85,15.99-15.54,19.92-.65.29-1.5,1.07-1.52,1.65-.14,3.85-.07,7.7-.07,11.64.78-.15,1.63-.24,2.44-.48,15.25-4.53,26.26-18.8,27.33-34.88.7-10.59-1.78-20.39-8.59-28.74-6.43-7.89-14.59-13.11-24.93-14.02-14.76-1.3-26.24,4.66-34.66,16.59-8.94,12.67-8.98,32.49-.24,45.3,1.36,1.99,2.94,3.83,4.36,5.66-3.2,3.65-6.29,7.17-9.58,10.93-10.46-13.03-16.24-26.6-14.41-42.62,2.04-17.84,10.12-32.15,25.82-41.43,10.97-6.49,22.85-9.24,35.53-5.77,4.13,1.13,8.11,2.81,12.29,4.28,2.56-3,5.17-6.08,7.77-9.12-.24-.31-.33-.52-.48-.6-17.67-9.68-36.14-11.06-54.43-2.96-23.63,10.47-36.2,29.62-38.79,55.07-1.29,12.68,1.1,25.07,7.14,36.33,9.15,17.06,22.93,28.74,42.16,33.15,4.54,1.04,9.27,1.29,14.28,1.96v13.29c-25.04-.68-45.77-10.33-60.32-30.54-22.17-30.8-21.07-62.61-1.34-94.83-1.69-1.59-3.64-3.25-5.37-5.11-1.72-1.84-3.23-3.88-5.16-6.22-18.46,24.97-24.52,51.45-17.36,80.36,7.17,28.95,25.24,49.41,52.53,62.63H58.45V54.11h319.74v329.69h-55.95v14.6c1.25,0,2.36,0,3.47,0,19.61,0,39.23,0,58.84,0,6.07,0,8.57-2.49,8.57-8.53,0-114.05,0-228.1,0-342.15,0-6.03-2.51-8.52-8.58-8.52-110.77,0-221.54,0-332.32,0-6.14,0-8.66,2.56-8.66,8.78,0,33.95,0,67.9,0,101.85v3.5H14.57V41.69H.09c0,1.39,0,2.59,0,3.79,0,36.5.01,73.01-.04,109.51v11.85Z"/>
    <path class="cls-1" d="M249.14,218.73c-10.7-8.7-22.27-14.79-35.15-18.3-12.74-3.48-25.68-4.37-39.63-2.23,14.92-16.96,29.3-33.33,43.96-50-2.77-1.66-5.32-3.22-7.89-4.73-4.71-2.76-9.46-5.46-14.13-8.27-2.01-1.21-3.43-1.31-5.41.51-8.3,7.65-16.82,15.07-25.3,22.53-2.19,1.92-4.3,4.18-6.87,5.36-10.6,4.87-23.57.21-26.16-12.21-1.55-7.45.42-13.81,6.55-18.85,5.14-4.23,9.94-8.88,15.07-13.5,2.7,2.92,5.19,5.6,7.95,8.58-1.1,1.03-2.08,1.98-3.1,2.89-4.48,4.04-9.05,7.99-13.44,12.12-2.56,2.41-2.47,6.59-.1,9.15,2.45,2.64,6.06,3,8.91.59,5.24-4.44,10.38-9,15.52-13.56,5-4.44,9.78-9.16,14.97-13.37,4.33-3.51,9.44-4.42,14.57-1.61,8.25,4.53,16.47,9.15,24.55,13.97,7.42,4.42,7.67,13.55,1.2,20.61-8.07,8.81-15.81,17.91-23.68,26.89-.18.2-.27.48-.6,1.09,16.82,1.76,32.04,7.57,46.38,16.64,3.57-3.95,7.18-7.87,10.7-11.87,5.04-5.71,10.02-11.48,15.03-17.23,2.04-2.34,4.16-4.62,6.09-7.05,3.62-4.57,2.81-10.68-2.16-13.73-9.15-5.61-18.47-10.93-27.75-16.33-13.18-7.67-26.39-15.29-39.58-22.94-5.05-2.93-10.04-5.95-15.13-8.79-2.45-1.37-5.06-1.39-7.31.53-4.15,3.55-8.23,7.19-12.34,10.79-.62.55-1.24,1.11-1.97,1.77-2.67-2.89-5.22-5.65-8.01-8.66,5.16-4.56,9.96-9.21,15.2-13.31,6.3-4.93,14.5-4.77,21.73-.52,16.24,9.54,32.56,18.94,48.85,28.39,10.83,6.28,21.63,12.6,32.5,18.8,11.49,6.55,12.57,23.94,3.69,33.44-8.03,8.58-15.55,17.64-23.34,26.45-4.68,5.29-9.44,10.5-14.37,15.96Z"/>
    <path class="cls-1" d="M347.04,190.53v-15.46h14.66v44.14c-2.24,0-4.41.15-6.53-.08-.81-.09-1.83-.91-2.23-1.67-4.97-9.41-12.6-15.25-23.03-17.43-.91-.19-1.88-.18-2.82-.18-13.74-.01-27.47,0-41.21,0h-3.71c3.92-4.44,7.28-8.45,10.86-12.27,5.81-6.21,11.06-12.82,12-21.54.56-5.26.08-10.64-.18-15.96-.09-1.91-.91-3.79-1.4-5.67,16.69-5.35,29.92-14.6,34.87-32.05,4.79-16.9,1.95-32.56-10.73-46.03h34.08v90.28h-14.5v-26.14c-2.11,2.74-3.57,5.17-5.53,7.06-6.16,5.95-12.42,11.79-20.06,15.94-.76.41-1.29,1.99-1.26,3.01.21,7.2-.07,14.3-2.85,21.09-.99,2.42-1.99,4.82-3.16,7.65,11.27-.12,22.41-1.04,32.75,5.31Z"/>
    <path class="cls-1" d="M285.07,233.21c1.07,1.63,2.03,3.01,2.9,4.44,2.24,3.65,3.02,3.75,7.37,3.28,4.02-.43,8.19-.72,12.15-.15,8.13,1.17,12.91,8.61,11.69,16.83-.7,4.73-.9,9.53-1.33,14.3-.64,7.1-1.32,14.19-1.9,21.29-.53,6.46-.91,12.94-1.42,19.41-.4,5.03-.94,10.05-1.35,15.08-.19,2.31.82,4.06,3.04,4.84,2.09.73,4.22-.41,4.77-2.79.58-2.54.81-5.18,1.02-7.79.68-8.6,1.23-17.22,1.94-25.82.73-8.87,1.63-17.72,2.36-26.59.55-6.56.94-13.12,1.43-19.68.33-4.49.7-8.98,1.05-13.47.25-3.12-1.57-5.22-4.67-5.33-1.5-.05-3,0-4.54,0v-13.63c14.64-3.46,25.27,7.67,23.74,20.76-.6,5.12-.92,10.27-1.37,15.41-.58,6.64-1.17,13.28-1.73,19.92-.39,4.67-.72,9.34-1.11,14.01-.75,8.97-1.53,17.93-2.29,26.9-.5,5.88-.76,11.8-1.53,17.65-1.2,9.18-8.86,14.91-17,15.25-9.37.39-17.02-5.07-18.81-14.1-.87-4.41-.29-9.14-.05-13.71.26-4.86.94-9.69,1.37-14.54.81-9.16,1.63-18.32,2.34-27.48.58-7.48,1.01-14.97,1.53-22.77-4.93.22-9.71.43-14.5.64-2.36.1-4.72.28-7.07.23-.7-.02-1.72-.53-2.02-1.1-5.27-10.28-12.12-19.37-20.91-27.47,2.15-2.3,4.15-4.52,6.25-6.64.4-.41,1.18-.6,1.79-.63,9.32-.48,18.65-.9,27.98-1.37,2.98-.15,5.96-.4,8.96-.6v14.29c-6.82.39-13.34.77-20.09,1.16Z"/>
    <path class="cls-1" d="M71.3,66.26h106.84c0,3.24.07,6.33-.06,9.41-.03.63-.72,1.54-1.33,1.78-6.29,2.5-11.13,6.97-16.01,11.42-2.44,2.22-4.92,4.39-7.46,6.49-.47.39-1.42.68-1.92.47-4.33-1.86-8.61-3.84-13.67-6.13,3.22-3.01,6.06-5.66,9.36-8.75h-61.13v51.69h15.71c.49-1.59.96-3.38,1.58-5.11,2.98-8.36,7.99-15.28,14.92-20.84,2.13-1.71,3.99-3.76,6.16-5.41.77-.58,2.28-.91,3.12-.56,4.28,1.76,8.45,3.78,13.21,5.97-2.97,2.68-5.83,5.06-8.45,7.68-4.1,4.11-8.34,8.15-11.94,12.67-3.41,4.29-4.68,9.57-4.62,15.1.02,1.49,0,2.98,0,4.64h-44.32v-80.52Z"/>
    <path class="cls-1" d="M186.31,157.19c-2.96,3.35-5.92,6.7-8.87,10.06-5.39,6.16-11.31,11.95-15.97,18.62-2.78,3.98-5.98,5.73-10.28,6.92-15.53,4.31-29.34,12.02-41.08,22.93-8.68,8.07-16.38,17.1-22.12,27.71-6.48,11.98-10.53,24.67-12.6,38.03-.59,3.79-.53,7.68-.79,11.76h-3.3v-131.89h19.49v13.84c-1.65.11-3.21.22-4.91.33v43.08c.2.2.41.41.61.61,10.52-13,22.63-24.07,38.12-31.73-2.9-2.05-5.43-3.73-7.83-5.57-1.26-.97-2.37-2.18-3.42-3.4-2.01-2.35-4.19-4.16-7.87-2.81v-14.66c4.21,0,8.44-.06,12.66.07.64.02,1.45.81,1.84,1.45,4.95,8.11,12.1,13.23,21.45,14.71,11.16,1.76,21.58.04,30.26-8.04,4.61-4.28,9.39-8.38,14.09-12.57.17.18.34.37.51.55Z"/>
    <path class="cls-1" d="M355.35,263.93h7.81v104.05h-96.29c6.89-9.42,13.87-18.49,17.68-29.76,1.5,2.96,2.56,5.65,4.12,8.02,6.51,9.85,15.72,14.65,27.6,14.84,9.82.16,18.22-2.9,24.92-9.97,5.55-5.86,8.36-12.99,8.83-21.13.39-6.82,1.22-13.61,1.8-20.42.38-4.4.64-8.81,1-13.21.6-7.29,1.26-14.57,1.85-21.86.28-3.46.44-6.92.67-10.56Z"/>
    <path class="cls-1" d="M310.71,128.23c-12.45,7.57-31.69,5.15-42.09-9.84-8.65-12.45-7.92-31.44,7.62-42.92,13.41-9.91,32.39-8.75,44.93,6.56,9.12,11.13,7.45,29.8-.04,36.93-2.99-3-6.05-5.95-8.91-9.08-.49-.54-.49-1.94-.18-2.73,4.67-11.9-4.32-22.78-16.29-23.99-6.08-.62-14.58,5.33-17.01,11.14-4.69,11.19,3.59,22.19,13.67,23.74,1.79.27,3.65-.02,5.48.09,1,.06,2.26.12,2.92.71,3.3,2.95,6.44,6.08,9.9,9.39Z"/>
    <path class="cls-1" d="M233.37,136.56c2.73,1.51,5.08,2.75,7.38,4.09,10.58,6.13,21.16,12.26,31.72,18.43,1.75,1.02,2.25,2.49.83,4.16-3.04,3.57-6.14,7.1-9.22,10.64-5.18,5.95-10.42,11.86-15.54,17.86-1.68,1.97-2.91,2.56-5.56,1.01-8.22-4.82-17.15-8.08-26.41-10.39-.52-.13-1.03-.32-2.07-.65,1.97-2.28,3.7-4.3,5.44-6.31,4.26-4.89,8.68-9.65,12.75-14.69,5.38-6.67,5.63-15.47,1.03-22.88-.13-.2-.14-.48-.35-1.28Z"/>
    <path class="cls-1" d="M259.4,66.39c-10.22,10.24-13.81,22.48-12.38,36.93-6.63-3.85-12.53-7.3-18.45-10.7-8.24-4.73-16.51-9.43-24.77-14.15-.33-.19-.65-.49-1-.52-6.34-.39-6.25-4.73-5.8-9.32.06-.65,0-1.31,0-2.25h62.39Z"/>
    <path class="cls-1" d="M100.2,366.56h-28.87v-50.58q4.73-.79,5.7,3.58c3.88,17.5,10.44,30.87,23.17,47Z"/>
    <path class="cls-1" d="M190.87,311.43h-15.46c.16-.98.22-1.79.42-2.56.87-3.28,1.68-6.58,2.7-9.82.74-2.37.91-4.1-1.26-6.18-3.4-3.26-2.87-8.25.53-11.32,3.08-2.79,7.84-2.66,10.76.31,3.21,3.25,3.31,8.53-.23,11.63-1.76,1.54-1.63,2.82-1.1,4.65,1.26,4.3,2.38,8.65,3.65,13.3Z"/>
  </g>
</svg>