<?xml version="1.0" encoding="UTF-8" standalone="no"?>
<!DOCTYPE svg PUBLIC "-//W3C//DTD SVG 20010904//EN"
              "http://www.w3.org/TR/2001/REC-SVG-20010904/DTD/svg10.dtd">

<svg xmlns="http://www.w3.org/2000/svg"
     width="6.41111in" height="6.25556in"
     viewBox="0 0 577 563">
  <path id="Selection"
        fill="currentColor" stroke="currentColor" stroke-width="1"
        d="M 254.00,281.00
           C 256.61,274.84 268.05,260.10 272.63,254.00
             272.63,254.00 310.65,204.00 310.65,204.00
             359.20,141.27 423.75,71.74 493.00,32.15
             509.65,22.63 519.41,17.95 537.00,10.58
             551.28,4.59 561.27,0.00 577.00,0.00
             576.73,2.37 576.65,3.74 575.43,5.91
             573.22,9.84 557.46,22.29 553.00,26.13
             553.00,26.13 516.00,59.91 516.00,59.91
             516.00,59.91 489.09,86.00 489.09,86.00
             414.11,166.48 364.68,232.24 309.01,327.00
             293.69,353.07 279.27,379.96 265.75,407.00
             263.69,411.14 256.29,427.24 253.61,429.40
             252.03,430.67 249.99,431.06 248.00,430.84
             242.15,430.17 240.11,423.49 237.58,419.00
             237.58,419.00 218.75,382.00 218.75,382.00
             218.75,382.00 197.74,338.00 197.74,338.00
             197.74,338.00 176.26,296.00 176.26,296.00
             168.02,280.03 158.06,257.24 140.00,250.56
             132.03,247.61 127.77,248.83 120.00,249.00
             120.54,243.08 122.03,240.19 124.78,235.00
             133.59,218.37 146.40,209.05 165.00,206.85
             167.75,206.52 169.14,206.11 172.00,206.32
             201.78,208.56 222.15,229.25 237.66,253.00
             242.48,260.39 249.74,272.63 252.00,281.00
             252.00,281.00 254.00,281.00 254.00,281.00 Z
           M 135.00,83.53
           C 143.30,82.17 151.73,82.73 159.00,87.27
             172.33,95.59 175.45,113.85 167.65,127.00
             162.96,134.90 156.29,137.58 149.00,142.34
             140.05,148.18 132.04,154.23 124.00,161.29
             101.22,181.26 82.61,208.87 71.45,237.00
             42.54,309.86 60.84,391.84 116.00,447.00
             122.92,453.92 128.11,459.14 136.00,465.10
             172.67,492.82 216.22,506.53 262.00,506.00
             272.20,505.88 286.95,503.64 297.00,501.42
             347.03,490.39 386.87,463.28 417.12,422.00
             426.41,409.32 435.02,392.73 440.58,378.00
             446.40,362.58 447.43,344.56 466.00,339.04
             469.58,337.98 472.31,337.93 476.00,338.01
             492.11,338.39 504.85,351.73 503.91,368.00
             503.56,374.06 500.03,385.03 498.00,391.00
             492.06,408.44 484.66,424.21 475.20,440.00
             438.24,501.72 376.39,544.48 306.00,558.55
             281.87,563.38 264.28,563.28 240.00,563.00
             217.22,562.73 183.19,554.28 162.00,545.80
             126.26,531.50 95.44,511.29 69.09,483.00
             -6.32,402.06 -21.77,278.27 33.15,182.00
             50.63,151.37 75.27,122.31 104.00,101.71
             112.82,95.38 124.63,86.59 135.00,83.53 Z" />
</svg>
