<?xml version="1.0" encoding="UTF-8" standalone="no"?>
<!-- Created with Inkscape (http://www.inkscape.org/) -->

<svg
   width="300mm"
   height="300mm"
   viewBox="0 0 300 300"
   version="1.1"
   id="svg965"
   inkscape:version="1.1 (c68e22c387, 2021-05-23)"
   sodipodi:docname="AClogoFINAL.svg"
   xmlns:inkscape="http://www.inkscape.org/namespaces/inkscape"
   xmlns:sodipodi="http://sodipodi.sourceforge.net/DTD/sodipodi-0.dtd"
   xmlns="http://www.w3.org/2000/svg"
   xmlns:svg="http://www.w3.org/2000/svg">
  <sodipodi:namedview
     id="namedview967"
     pagecolor="#ffffff"
     bordercolor="#666666"
     borderopacity="1.0"
     inkscape:pageshadow="2"
     inkscape:pageopacity="0.0"
     inkscape:pagecheckerboard="true"
     inkscape:document-units="mm"
     showgrid="false"
     height="300mm"
     inkscape:zoom="0.5"
     inkscape:cx="394"
     inkscape:cy="251"
     inkscape:window-width="2125"
     inkscape:window-height="1285"
     inkscape:window-x="338"
     inkscape:window-y="56"
     inkscape:window-maximized="0"
     inkscape:current-layer="layer1" />
  <defs
     id="defs962" />
  <g
     inkscape:groupmode="layer"
     id="layer3"
     inkscape:label="Layer 1b"
     style="display:inline">
    <circle
       style="fill:#041058;fill-opacity:0;stroke-width:0.264583"
       id="path26083"
       cx="150"
       cy="150"
       r="150" />
    <path
       id="path26209"
       style="opacity:1;fill:#041058;fill-opacity:1;stroke:none;stroke-width:0.999999;stroke-opacity:1"
       d="M 566.92969 0 A 566.92911 566.92911 0 0 0 0 566.92969 A 566.92911 566.92911 0 0 0 566.92969 1133.8574 A 566.92911 566.92911 0 0 0 1113.707 713.71094 L 1025.1328 681.99609 L 1023.3691 681.44922 A 472.44092 472.44092 0 0 1 566.92969 1039.3691 A 472.44092 472.44092 0 0 1 94.488281 566.92969 A 472.44092 472.44092 0 0 1 566.92969 94.488281 A 472.44092 472.44092 0 0 1 1026.1426 456.59375 L 1026.1445 455.96484 L 1115.6992 424.95703 A 566.92911 566.92911 0 0 0 566.92969 0 z "
       transform="scale(0.26458333)" />
  </g>
  <g
     inkscape:groupmode="layer"
     id="layer4"
     inkscape:label="Layer 1c" />
  <g
     inkscape:groupmode="layer"
     id="layer2"
     inkscape:label="Layer 2"
     style="display:inline">
    <g
       id="g29036"
       style="fill:#041058;fill-opacity:1">
      <g
         aria-label="A"
         id="text32454"
         style="font-weight:bold;font-size:169.333px;line-height:1.25;font-family:Archivo;-inkscape-font-specification:'Archivo Bold';fill:#041058;stroke-width:4.11356;fill-opacity:1">
        <path
           d="M 89.717452,281.58752 134.42136,165.42509 h 31.15727 l 44.70391,116.16243 h -27.26261 l -8.29732,-22.85995 h -50.63056 l -8.29732,22.85995 z m 41.655918,-43.17991 h 36.06793 l -10.32932,-28.61727 q -0.67733,-1.86267 -1.69333,-4.40266 -0.84666,-2.70933 -1.86266,-5.92666 -1.016,-3.21732 -2.032,-6.26532 -0.84666,-3.21732 -1.69333,-5.75732 h -1.01599 q -0.84667,3.21733 -2.20133,7.61999 -1.35467,4.23332 -2.70933,8.29731 -1.35466,3.89466 -2.20133,6.43466 z"
           id="path29038"
           style="fill:#041058;fill-opacity:1" />
      </g>
      <g
         aria-label="A"
         transform="scale(-1)"
         id="text32454-0"
         style="font-weight:bold;font-size:169.333px;line-height:1.25;font-family:Archivo;-inkscape-font-specification:'Archivo Bold';fill:#041058;stroke-width:4.11356;fill-opacity:1">
        <path
           d="m -210.28254,-18.412498 44.70391,-116.162432 h 31.15727 l 44.70391,116.162432 h -27.26261 l -8.29732,-22.859954 h -50.63056 l -8.29732,22.859954 z m 41.65592,-43.179914 h 36.06792 l -10.32931,-28.617275 q -0.67733,-1.862663 -1.69333,-4.402658 -0.84666,-2.709328 -1.86266,-5.926655 -1.016,-3.21733 -2.032,-6.26532 -0.84666,-3.21733 -1.69333,-5.75732 h -1.016 q -0.84666,3.21732 -2.20132,7.61998 -1.35467,4.23333 -2.70933,8.297319 -1.35467,3.894659 -2.20133,6.434654 z"
           id="path29041"
           style="fill:#041058;fill-opacity:1" />
      </g>
      <g
         aria-label="A"
         transform="rotate(90)"
         id="text32454-6"
         style="font-weight:bold;font-size:169.333px;line-height:1.25;font-family:Archivo;-inkscape-font-specification:'Archivo Bold';fill:#041058;stroke-width:4.11356;fill-opacity:1">
        <path
           d="M 89.717452,-18.412495 134.42136,-134.57493 h 31.15727 l 44.70391,116.162435 h -27.26261 l -8.29732,-22.859954 h -50.63056 l -8.29732,22.859954 z m 41.655918,-43.179913 h 36.06793 l -10.32932,-28.617276 q -0.67733,-1.862662 -1.69333,-4.402657 -0.84666,-2.709328 -1.86266,-5.926659 -1.016,-3.21732 -2.032,-6.26532 -0.84666,-3.21732 -1.69333,-5.75732 h -1.01599 q -0.84667,3.21733 -2.20133,7.61999 -1.35467,4.23332 -2.70933,8.297313 -1.35466,3.894659 -2.20133,6.434653 z"
           id="path29044"
           style="fill:#041058;fill-opacity:1" />
      </g>
      <g
         aria-label="A"
         transform="rotate(-90)"
         id="text32454-0-5"
         style="font-weight:bold;font-size:169.333px;line-height:1.25;font-family:Archivo;-inkscape-font-specification:'Archivo Bold';fill:#041058;stroke-width:4.11356;fill-opacity:1">
        <path
           d="m -210.28254,281.58752 44.70391,-116.16243 h 31.15727 l 44.70391,116.16243 h -27.26261 l -8.29732,-22.85995 h -50.63056 l -8.29732,22.85995 z m 41.65592,-43.17991 h 36.06792 l -10.32931,-28.61727 q -0.67733,-1.86267 -1.69333,-4.40266 -0.84666,-2.70933 -1.86266,-5.92666 -1.016,-3.21732 -2.032,-6.26532 -0.84666,-3.21732 -1.69333,-5.75732 h -1.016 q -0.84666,3.21733 -2.20132,7.61999 -1.35467,4.23332 -2.70933,8.29731 -1.35467,3.89466 -2.20133,6.43466 z"
           id="path29047"
           style="fill:#041058;fill-opacity:1" />
      </g>
    </g>
    <text
       xml:space="preserve"
       style="font-size:10.5833px;line-height:1.25;font-family:Archivo;-inkscape-font-specification:Archivo;stroke-width:0.264583"
       x="287.86667"
       y="290.51248"
       id="text7128"><tspan
         sodipodi:role="line"
         id="tspan7126"
         style="stroke-width:0.264583"></tspan></text>
  </g>
  <g
     inkscape:groupmode="layer"
     id="layer1"
     inkscape:label="Layer 3">
    <text
       xml:space="preserve"
       style="font-size:10.5833px;line-height:1.25;font-family:Archivo;-inkscape-font-specification:Archivo;fill:#041058;fill-opacity:1;stroke-width:0.264583"
       x="285.28699"
       y="299.83905"
       id="text11547"><tspan
         sodipodi:role="line"
         id="tspan11545"
         style="fill:#041058;fill-opacity:1;stroke-width:0.264583"
         x="285.28699"
         y="299.83905">TM</tspan></text>
  </g>
</svg>
