<?xml version="1.0" encoding="UTF-8" standalone="no"?>
<!DOCTYPE svg PUBLIC "-//W3C//DTD SVG 1.1//EN" "http://www.w3.org/Graphics/SVG/1.1/DTD/svg11.dtd">
<svg width="100%" height="100%" viewBox="0 0 912 916" version="1.1" xmlns="http://www.w3.org/2000/svg" xmlns:xlink="http://www.w3.org/1999/xlink" xml:space="preserve" xmlns:serif="http://www.serif.com/" style="fill-rule:evenodd;clip-rule:evenodd;stroke-linejoin:round;stroke-miterlimit:2;">
    <g id="Escape-Room-Lines-Connected" serif:id="Escape Room Lines Connected">
        <g id="Person">
            <path d="M325.402,254C325.402,254 313.63,263.29 299.051,276.42C290.19,284.401 283.53,291.488 281,298C275.41,312.39 278.207,327.166 288,338C303.115,354.722 326.537,353.049 336,347C344.884,341.321 360.487,327.013 374.785,313.955C394.252,296.177 408,284 408,284L460,315C460,315 428.667,350.639 414,367.75C399,385.25 369,420 369,420C369,420 400.29,417.699 416,418.791C441.167,420.541 457.291,425.423 475,432.5C483.542,435.914 496.197,442.931 506.209,449.452C517.683,456.927 526,463.75 526,463.75C526,463.75 583.772,398.568 603,377C610.906,368.131 616.541,358.889 617.395,349.5C619.206,329.582 614.793,315.617 604,308C588.768,297.25 492,242 492,242C492,242 436.417,208.747 420,201C412.54,197.48 403.095,196.345 396.5,197.517C389,198.851 383.354,201.421 376,208C368.567,214.649 348.953,232.5 348.953,232.5L365.5,251L382.632,235.101C385.589,233.255 395.166,222.808 401,221C405.593,219.577 410.467,223.55 433.285,237C453.403,248.858 490.371,269.414 523.505,289C551.092,305.307 575.694,320.687 587,327C593.955,330.883 595.231,346.303 590,353C582.21,362.973 558.428,389.674 541,409.452C525.846,426.65 522,431.5 522,431.5C522,431.5 519.301,428.964 508.255,422.389C496.551,415.421 471.731,404.707 456,401C439.741,397.169 424,395.5 424,395.5C424,395.5 460.345,352.599 473,338.75C486.793,323.656 487.583,314.168 482.5,302C478.487,292.396 442,274 442,274C442,274 418.876,259.254 409,260C404.125,260.368 399.461,261.047 395,263.491C385.626,268.627 377.15,278.147 369.5,285C355.745,297.322 344.314,307.839 330.402,320C318.033,330.813 309.814,325.35 305.852,320C299.79,311.815 306.034,304.7 312,299C320.025,291.333 342,272 342,272L325.402,254Z"/>
            <g transform="matrix(1.02239,0,0,1.00746,-14.4701,-2.10448)">
                <path d="M655.303,274.242C645.958,279.194 635.304,282 624,282C587.022,282 557,251.978 557,215C557,178.022 587.022,148 624,148C660.978,148 691,178.022 691,215C691,229.246 686.544,242.459 678.952,253.321L657.654,231.708C660.215,226.682 661.657,221.006 661.657,215C661.657,194.456 644.783,177.778 624,177.778C603.217,177.778 586.343,194.456 586.343,215C586.343,235.544 603.217,252.222 624,252.222C626.971,252.222 629.861,251.881 632.634,251.237L655.303,274.242Z"/>
            </g>
            <path d="M643,540L631,694C631,694 628.19,731.384 665,736C685.801,738.608 698.45,726.577 704.323,715.403C707.552,709.259 708.035,703.373 708.332,700.322C712.969,652.696 724.222,536.22 725,498C725.207,487.848 719.547,475.8 713,470C701.107,459.464 692,460 692,460L675,460L675,490C675,490 682.521,489.708 687.5,490.445C690.297,490.859 694.121,494.208 694,497.5C693.673,506.398 693.023,517.203 692,530C689.278,564.055 681.667,668.333 678,697C677.577,700.306 675.852,705.183 670,705C662.133,704.754 661.894,698.483 662,694C662.667,665.833 673.333,565.5 674,536C674.152,529.294 670.167,522.25 665,518C660.451,514.258 656.019,510.917 649,510.5C632.146,509.498 612,511 612,511C612,511 610.418,506.798 607.18,501.807C604.188,497.192 602,494 602,494C602,494 617.711,492.72 623.5,492.5C636.331,492.011 643,491.5 643,491.5L644,462.25C644,462.25 614.769,463.667 597.436,464.292C585.618,464.718 564,466 564,466L550,482C558.653,489.822 564.306,494.645 570.959,504.467C579.044,516.404 588.32,528.489 595,542L643,540Z"/>
            <path d="M492,290C492,290 499.991,294.331 508.822,299.274C530.078,311.171 565.785,331.406 576,338C578.021,339.304 580.215,341.938 578.75,345C578.239,346.069 572,353 572,353L519,413C519,413 507.988,405.49 483.435,395.5C473.204,391.337 453,386 453,386C453,386 472.572,363.646 485,349C492.444,340.228 500.832,332.336 500,313C499.479,300.884 492,290 492,290Z"/>
        </g>
        <g id="Person-Outline" serif:id="Person Outline">
            <path d="M212,777L150,777L150,669L161,669C161,669 164.258,691.276 181,729C191.07,751.69 212,777 212,777Z"/>
            <path d="M416,162L416,141L549,141C549,141 531.719,153.813 524.693,180.015C518.676,202.454 521,219 521,219C521,219 502.98,209.257 448.25,177.015C424.95,163.289 416,162 416,162Z"/>
            <path d="M767,559L767,780L563,780C563,780 573.075,766.338 580,756.255C583.184,751.619 592.963,734.812 597.252,725.14C603.37,711.343 602,716 602,716C602,716 603.019,727.061 614,740.318C621.37,749.216 625.409,752.143 634.839,757.255C646.323,763.481 657.902,764.298 669,765C717.416,768.061 736.776,719.656 738,709.216C742.683,669.282 750.5,559 750.5,559L767,559Z"/>
            <path d="M764,371L764,465L747,465C747,465 742.116,454.982 739.227,451.328C734.743,445.658 728.679,438.838 722.005,434.75C712.34,428.828 706.292,425.088 692,424C684.147,423.402 657.503,423.429 657.503,423.429L596,424C596,424 617.669,399.406 632,382C650.379,359.679 645,326 645,326C645,326 643.824,318.298 643,315C642.401,312.606 641.115,309.008 640.438,307.171C640.172,306.45 640,306 640,306C640,306 651.649,303.637 661.184,299.283C662.014,298.905 662.827,298.511 663.615,298.103C668.966,295.329 672.897,292.839 677.5,289.441C684.969,283.927 691.154,279.16 698,270C710.572,253.177 713.295,244.232 714.858,238.107C715.356,236.154 715.789,234.181 716.158,232.188C718.182,224.276 719.255,216.007 719.255,207.5C719.255,182.191 707.766,158.991 692,141L764,141L764,333L733,333L733,276C733,276 723.499,293.534 700,311C695.582,314.284 692.102,317.747 684.495,322.517C679.224,325.821 676,326 676,326C676,326 677.167,353.583 674,367.75C672.339,375.182 663,393 663,393C660.216,393.636 678.212,392.736 699.635,393.057C710.056,393.213 718.694,396.741 719.468,397C726.629,399.396 733,404 733,404L733,371L764,371Z"/>
            <path d="M150,622L150,343L191,343L191,372L181,372L181,467.974C184.878,462.951 189.197,457.616 194,452C225.606,415.043 254.49,401.606 263.563,398.055C258.968,394.99 250.187,389.037 246.165,385.675C241.11,381.45 233,372 233,372L223,372L223,343L251,343C251,343 262.082,358.803 271.5,365C284.476,373.537 295.582,377.268 312,377C345.419,376.455 353.723,366.625 364,357.5C381.833,341.667 395,330 395,330C395,330 395.167,331.417 384,345C380.036,349.822 367.014,363.744 357.708,375C344.154,391.395 334,405.5 334,405.5C334,405.5 297.177,407.932 244,447.024C236.779,452.333 222.347,466.007 207,483.647C186.926,506.719 172.654,543.166 170.5,549.455C161.38,576.074 158.569,595.725 157.852,607.811C157.582,612.368 157.61,615.849 157.709,618.223C157.815,620.729 158,622 158,622L150,622Z"/>
            <path d="M150,311L150,141L376,141L376,164C376,164 369.793,164.665 349,181C333.493,193.182 322.458,205.732 322,205L292,191C292,191 297.275,184.024 310.31,172L181,172L181,282L215,282C215,282 217.854,265.143 225.637,253.309C243.612,225.977 264.719,212.241 265,212L297,227C297,227 260.529,254.439 247,282C245.916,284.209 244,294 244,294L244,311L150,311Z"/>
        </g>
        <path id="Wheel" d="M378.118,624.574C373.261,621.527 370,615.914 370,609.5C370,599.841 377.393,592 386.5,592C395.607,592 403,599.841 403,609.5C403,615.914 399.739,621.527 394.882,624.574L403,660L370,660L378.118,624.574ZM403.983,799.191C434.616,796.072 462.737,784.086 485.896,765.759L508.874,788.736C475.942,813.692 434.934,828.5 390.5,828.5C282.049,828.5 194,740.283 194,631.625C194,586.814 208.975,545.48 234.18,512.376L257.961,536.158C238.496,563.602 227,597.428 227,634C227,725.618 299.142,800 388,800C388.334,800 388.667,799.999 389,799.997L389,769.985C388.334,769.995 387.668,770 387,770C313.595,770 254,707.828 254,631.25C254,554.672 313.595,492.5 387,492.5C410.477,492.5 432.541,498.859 451.694,510.016L434.73,529.639C420.332,522.187 404.132,518 387.007,518C327.294,518 278.814,568.914 278.814,631.625C278.814,662.343 290.446,690.23 309.332,710.689L330.601,689.42C330.601,689.42 331.047,689.275 331.792,689.061C317.115,673.806 308,652.526 308,629C308,582.639 343.399,545 387,545C430.601,545 466,582.639 466,629C466,669.156 439.442,702.769 404,711.047L404,684.093C425.766,676.419 441.5,654.416 441.5,628.5C441.5,596.213 417.079,570 387,570C356.921,570 332.5,596.213 332.5,628.5C332.5,655.204 349.205,677.752 372,684.753L372,711.485C361.222,709.279 351.221,704.74 342.48,698.384C341.202,699.906 339.614,701.625 337.672,703.562C327.982,713.23 322.865,718.343 320.217,720.994C338.615,736.185 361.811,745.25 387.007,745.25C446.721,745.25 495.201,694.336 495.201,631.625C495.201,598.819 481.933,569.241 460.731,548.492L477.257,529.376C502.608,553.835 518.825,588.452 519.939,627C519.959,627 519.98,627 520,627C554.496,627.039 548,627 548,627L548.859,627C545.296,538.623 474.584,468 388,468C345.955,468 307.653,484.653 278.965,511.906L255.592,488.534C290.799,455.199 338.285,434.75 390.5,434.75C498.951,434.75 587,522.967 587,631.625C587,684.229 566.364,732.042 532.766,767.374L508.932,743.54C532.276,716.17 547.026,680.822 548.816,642L519.606,642C514.77,707.714 465.972,760.674 403.876,768.892C403.959,770.413 404.002,772.11 404,774C403.984,788.354 403.981,795.61 403.983,799.191Z"/>
        <path id="Outer-Lines" serif:id="Outer Lines" d="M31,357.5L31,885L881,885L881,31L31,31L31,58L0,58L0,31L0,15.5C0,15.5 -0.043,11.271 2.321,7.254C5.355,2.098 12,0 12,0L900,-0C900,-0 906.645,2.098 909.679,7.254C912.043,11.271 912,15.5 912,15.5L912,31L912,893.5L912,900.5C912,900.5 912.043,904.729 909.679,908.746C906.645,913.902 900,916 900,916L12,916C12,916 5.355,913.902 2.321,908.746C-0.043,904.729 0,900.5 0,900.5L0,893.5L0,89.5L31,89.5L31,326L92,326L92,104L92,99.5C92,99.5 91.957,95.271 94.321,91.254C97.355,86.098 104,84 104,84L818,84C818,84 824.645,86.098 827.679,91.254C830.043,95.271 830,99.5 830,99.5L830,828.5C830,828.5 830.043,832.729 827.679,836.746C824.645,841.902 818,844 818,844L681,844L681,813L799,813L799,115L123,115L123,813L627,813L627,844L104,844C104,844 97.355,841.902 94.321,836.746C91.957,832.729 92,828.5 92,828.5L92,821.5L92,357.5L31,357.5Z"/>
    </g>
</svg>
