<?xml version="1.0" encoding="UTF-8"?>
<svg version="1.1" xmlns="http://www.w3.org/2000/svg" width="500" height="500">
<g fill="currentColor">
<path d="M0 0 C1.49055908 0.30599121 1.49055908 0.30599121 3.01123047 0.61816406 C35.55315286 7.50020214 66.53492178 19.28688193 94.109375 38.05078125 C97.85878806 40.57910168 101.68666301 42.97270763 105.52734375 45.359375 C110.19520107 48.45653152 114.05091402 52.05091402 118 56 C120.75873049 58.35641562 123.52602272 60.64755536 126.4375 62.8125 C129.2308319 65.19705162 131.49142124 67.76629704 133.8671875 70.55859375 C135.90824559 72.89496977 138.02485767 75.14365639 140.1640625 77.38989258 C147.46552797 85.10674591 153.88051305 93.32262132 160 102 C160.45197754 102.63824707 160.90395508 103.27649414 161.36962891 103.93408203 C187.63529087 141.51536324 204.96059706 188.62053299 205.203125 234.79296875 C205.21018463 235.69341919 205.21724426 236.59386963 205.22451782 237.52160645 C205.4538424 275.35568106 205.4538424 275.35568106 202 292 C201.69400879 293.49055908 201.69400879 293.49055908 201.38183594 295.01123047 C194.37662615 328.13557399 182.08706943 361.44888291 162 389 C161.56606934 389.60086426 161.13213867 390.20172852 160.68505859 390.82080078 C146.8950218 409.85247077 131.64741415 427.55817287 113 442 C112.01902344 442.78632813 111.03804688 443.57265625 110.02734375 444.3828125 C97.22175463 454.5773579 83.57799257 462.89812755 69.0625 470.4375 C67.92538574 471.02885742 66.78827148 471.62021484 65.61669922 472.22949219 C48.47023079 481 48.47023079 481 44 481 C44 481.66 44 482.32 44 483 C43.05382812 483.23074219 42.10765625 483.46148437 41.1328125 483.69921875 C39.79673028 484.02805837 38.46080625 484.35754112 37.125 484.6875 C36.40320557 484.86539062 35.68141113 485.04328125 34.93774414 485.2265625 C31.18275145 486.16359413 27.45014446 487.14200476 23.73828125 488.23828125 C5.37263564 493.64970004 -13.61219712 497.102375 -32.79296875 497.203125 C-34.14364441 497.21371445 -34.14364441 497.21371445 -35.52160645 497.22451782 C-73.35568106 497.4538424 -73.35568106 497.4538424 -90 494 C-91.49055908 493.69400879 -91.49055908 493.69400879 -93.01123047 493.38183594 C-126.13557399 486.37662615 -159.44888291 474.08706943 -187 454 C-187.60086426 453.56606934 -188.20172852 453.13213867 -188.82080078 452.68505859 C-207.85247077 438.8950218 -225.55817287 423.64741415 -240 405 C-240.78632813 404.01902344 -241.57265625 403.03804688 -242.3828125 402.02734375 C-274.00501214 362.30601439 -294.93438864 310.36902229 -295.203125 259.20703125 C-295.21018463 258.30658081 -295.21724426 257.40613037 -295.22451782 256.47839355 C-295.4538424 218.64431894 -295.4538424 218.64431894 -292 202 C-291.69400879 200.50944092 -291.69400879 200.50944092 -291.38183594 198.98876953 C-284.37662615 165.86442601 -272.08706943 132.55111709 -252 105 C-251.56606934 104.39913574 -251.13213867 103.79827148 -250.68505859 103.17919922 C-236.8950218 84.14752923 -221.64741415 66.44182713 -203 52 C-202.01902344 51.21367188 -201.03804688 50.42734375 -200.02734375 49.6171875 C-187.27820638 39.46758341 -173.68721551 31.15819668 -159.25 23.625 C-158.13802246 23.04202148 -157.02604492 22.45904297 -155.88037109 21.85839844 C-136.66643777 12 -136.66643777 12 -131 12 C-131 11.34 -131 10.68 -131 10 C-127.37993971 9.08284613 -123.75783476 8.17464175 -120.1328125 7.27734375 C-116.4765942 6.37228932 -112.82758633 5.44188614 -109.1796875 4.50390625 C-74.29891639 -4.35065646 -35.52458223 -7.37166289 0 0 Z M-202 64 C-202.57073242 64.37350586 -203.14146484 64.74701172 -203.72949219 65.13183594 C-205.67868132 66.40166737 -205.67868132 66.40166737 -208 69 C-208.29599642 72.08329604 -208.28364196 74.47011727 -208 77.5 C-207.41077528 89.50324856 -210.89677435 99.95622749 -214.75219727 111.19213867 C-218.04341143 120.84861098 -220.50801229 130.74494881 -223.10351562 140.60595703 C-223.91733333 143.6870283 -224.74675996 146.76347579 -225.578125 149.83984375 C-231.83032124 173.41693686 -235.78234981 197.683252 -238.73535156 221.88232422 C-238.97693847 223.81546523 -239.25418805 225.74406399 -239.53515625 227.671875 C-240.31664703 233.95665673 -240.40999559 240.30134089 -240.625 246.625 C-240.6765625 247.92179688 -240.728125 249.21859375 -240.78125 250.5546875 C-240.82507813 251.80765625 -240.86890625 253.060625 -240.9140625 254.3515625 C-240.9548291 255.48416504 -240.9955957 256.61676758 -241.03759766 257.78369141 C-241.0004715 260.95966574 -240.52281178 263.87523414 -240 267 C-240.33 267.33 -240.66 267.66 -241 268 C-241.63654956 274.96532118 -241.01522095 280.70676362 -238 287 C-237.525625 288.0725 -237.05125 289.145 -236.5625 290.25 C-234.96026976 293.06992522 -233.31630828 294.74987196 -231 297 C-230.09407956 298.20969796 -229.20383232 299.43119694 -228.32421875 300.66015625 C-225.09597103 305.00442025 -221.48569153 308.78035764 -217.625 312.5625 C-216.96306641 313.21798828 -216.30113281 313.87347656 -215.61914062 314.54882812 C-211.74971362 318.35737919 -207.81748513 322.04739551 -203.6640625 325.546875 C-201.96144852 327.03366467 -200.4301891 328.61053957 -198.875 330.25 C-194.42209986 334.79524139 -189.32020945 338.54246577 -184.296875 342.42578125 C-181.88006388 344.29779723 -179.53658115 346.21929817 -177.25 348.25 C-168.68975442 355.71607885 -156.8683608 365.19378538 -145.25 366.25 C-142.79827556 366.21473892 -142.79827556 366.21473892 -141 364 C-140.58557812 358.24139146 -141.36322912 353.62409549 -143.1875 348.1875 C-143.41308594 347.49317871 -143.63867188 346.79885742 -143.87109375 346.08349609 C-145.83581737 340.18523205 -148.23338212 334.56792689 -151 329 C-151.40089844 328.17242187 -151.80179687 327.34484375 -152.21484375 326.4921875 C-159.75298418 311.12690445 -168.54638944 296.44631952 -178.1875 282.3125 C-180.46233395 278.93343631 -182.31766109 275.50390839 -184.0703125 271.83203125 C-185.08200486 269.74902263 -185.08200486 269.74902263 -187 267 C-188.94622933 264.08065601 -190.46704814 261.16632124 -191.98828125 258.015625 C-192.97299074 256.05380996 -194.05554266 254.19228476 -195.1875 252.3125 C-198.21978731 246.77073353 -198.61144874 241.23904172 -198 235 C-196.68796907 231.57414145 -195.74296144 230.41910645 -192.5625 228.625 C-184.43624027 227.1993404 -177.01187177 228.10719068 -170.015625 232.57421875 C-169.35046875 233.04472656 -168.6853125 233.51523438 -168 234 C-167.39671875 234.39832031 -166.7934375 234.79664063 -166.171875 235.20703125 C-159.39068027 240.26238137 -155.20221575 248.48186715 -151.5625 255.94921875 C-149.69852226 259.5886353 -147.53332902 262.92561971 -145.25 266.3125 C-144.80462891 266.97475586 -144.35925781 267.63701172 -143.90039062 268.31933594 C-136.3135487 279.51348582 -127.59380539 289.46889922 -118 299 C-117.46117187 299.56203125 -116.92234375 300.1240625 -116.3671875 300.703125 C-105.36513848 312.10839048 -91.96353854 321.69671786 -78.28125 329.6484375 C-76.02554345 330.98486638 -73.8577967 332.40454535 -71.6875 333.875 C-68.12798619 336.28547777 -64.49400123 338.53040241 -60.8125 340.75 C-35.72761029 356.10570352 -14.55458978 375.42669372 3 399 C3.515625 399.680625 4.03125 400.36125 4.5625 401.0625 C7.82780772 405.47066543 10.39886736 410.18660838 13 415 C14.85343561 418.27440291 16.71611137 421.53085071 18.6640625 424.75 C21.92606406 430.19129621 24.82934178 435.47659488 26.98046875 441.453125 C27.8411211 443.60310712 28.7903545 445.58519303 29.84765625 447.640625 C32.29823352 452.4705188 34.27278439 457.46176171 36.25 462.5 C36.61351562 463.4178125 36.97703125 464.335625 37.3515625 465.28125 C38.23757333 467.51959315 39.12031257 469.75916593 40 472 C62.33637399 463.9200595 83.46289829 452.9597663 102 438 C102.96421875 437.2265625 103.9284375 436.453125 104.921875 435.65625 C106.80294574 434.13105751 108.66738538 432.58504327 110.51171875 431.015625 C113 429 113 429 115.20703125 427.734375 C117.53131449 426.31424268 118.64154753 425.38493584 120 423 C120.41800869 419.49776501 120.55123778 416.11342227 120.58496094 412.59228516 C120.82831292 401.13867175 124.82003237 390.38599442 128.48828125 379.6328125 C131.48394142 370.69569448 133.7054883 361.50478723 136.10351562 352.39404297 C136.91733333 349.3129717 137.74675996 346.23652421 138.578125 343.16015625 C144.83032124 319.58306314 148.78234981 295.316748 151.73535156 271.11767578 C151.97693847 269.18453477 152.25418805 267.25593601 152.53515625 265.328125 C153.31664703 259.04334327 153.40999559 252.69865911 153.625 246.375 C153.6765625 245.07820312 153.728125 243.78140625 153.78125 242.4453125 C153.84699219 240.56585938 153.84699219 240.56585938 153.9140625 238.6484375 C153.9548291 237.51583496 153.9955957 236.38323242 154.03759766 235.21630859 C154.0004715 232.04033426 153.52281178 229.12476586 153 226 C153.33 225.67 153.66 225.34 154 225 C154.63654956 218.03467882 154.01522095 212.29323638 151 206 C150.525625 204.9275 150.05125 203.855 149.5625 202.75 C147.96026976 199.93007478 146.31630828 198.25012804 144 196 C143.09407956 194.79030204 142.20383232 193.56880306 141.32421875 192.33984375 C138.09597103 187.99557975 134.48569153 184.21964236 130.625 180.4375 C129.96306641 179.78201172 129.30113281 179.12652344 128.61914062 178.45117188 C124.74971362 174.64262081 120.81748513 170.95260449 116.6640625 167.453125 C114.96144852 165.96633533 113.4301891 164.38946043 111.875 162.75 C107.42209986 158.20475861 102.32020945 154.45753423 97.296875 150.57421875 C94.88006388 148.70220277 92.53658115 146.78070183 90.25 144.75 C81.68975442 137.28392115 69.8683608 127.80621462 58.25 126.75 C55.79827556 126.78526108 55.79827556 126.78526108 54 129 C53.58557812 134.75860854 54.36322912 139.37590451 56.1875 144.8125 C56.41308594 145.50682129 56.63867188 146.20114258 56.87109375 146.91650391 C58.83581737 152.81476795 61.23338212 158.43207311 64 164 C64.40089844 164.82757813 64.80179687 165.65515625 65.21484375 166.5078125 C72.75298418 181.87309555 81.54638944 196.55368048 91.1875 210.6875 C93.46233395 214.06656369 95.31766109 217.49609161 97.0703125 221.16796875 C98.08200486 223.25097737 98.08200486 223.25097737 100 226 C101.94622933 228.91934399 103.46704814 231.83367876 104.98828125 234.984375 C105.97299074 236.94619004 107.05554266 238.80771524 108.1875 240.6875 C111.21978731 246.22926647 111.61144874 251.76095828 111 258 C109.68796907 261.42585855 108.74296144 262.58089355 105.5625 264.375 C97.43624027 265.8006596 90.01187177 264.89280932 83.015625 260.42578125 C82.35046875 259.95527344 81.6853125 259.48476563 81 259 C80.39671875 258.60167969 79.7934375 258.20335937 79.171875 257.79296875 C72.39068027 252.73761863 68.20221575 244.51813285 64.5625 237.05078125 C62.69852226 233.4113647 60.53332902 230.07438029 58.25 226.6875 C57.80462891 226.02524414 57.35925781 225.36298828 56.90039062 224.68066406 C49.3135487 213.48651418 40.59380539 203.53110078 31 194 C30.46117187 193.43796875 29.92234375 192.8759375 29.3671875 192.296875 C18.36513848 180.89160952 4.96353854 171.30328214 -8.71875 163.3515625 C-10.97445655 162.01513362 -13.1422033 160.59545465 -15.3125 159.125 C-18.87201381 156.71452223 -22.50599877 154.46959759 -26.1875 152.25 C-51.27238971 136.89429648 -72.44541022 117.57330628 -90 94 C-90.515625 93.319375 -91.03125 92.63875 -91.5625 91.9375 C-94.82780772 87.52933457 -97.39886736 82.81339162 -100 78 C-101.85343561 74.72559709 -103.71611137 71.46914929 -105.6640625 68.25 C-108.92606406 62.80870379 -111.82934178 57.52340512 -113.98046875 51.546875 C-114.8411211 49.39689288 -115.7903545 47.41480697 -116.84765625 45.359375 C-119.29823352 40.5294812 -121.27278439 35.53823829 -123.25 30.5 C-123.61351562 29.5821875 -123.97703125 28.664375 -124.3515625 27.71875 C-125.23757333 25.48040685 -126.12031257 23.24083407 -127 21 C-151.15570692 21 -183.95004472 49.33155533 -202 64 Z " transform="translate(295,3)"/>
<path d="M0 0 C0.99 0 1.98 0 3 0 C1.77686647 7.01692394 0.43519098 14.0110419 -0.9375 21 C-1.09508789 21.81758789 -1.25267578 22.63517578 -1.41503906 23.47753906 C-2.26931636 27.79001302 -3.25501522 32.01839941 -4.44921875 36.25 C-6.26864876 42.76585876 -7.55810176 49.36759762 -8.875 56 C-11.60969312 69.49933049 -14.50965977 82.95760268 -19 96 C-19.66 96 -20.32 96 -21 96 C-30.7229555 84.30902459 -31.90416928 70.85003136 -30.6875 56.25 C-27.89318282 43.04050062 -20.94518493 28.82263028 -13 18 C-11.42360506 15.55621071 -9.85735319 13.10632155 -8.296875 10.65234375 C-7.86890625 10.10707031 -7.4409375 9.56179688 -7 9 C-6.34 9 -5.68 9 -5 9 C-4.731875 8.2575 -4.46375 7.515 -4.1875 6.75 C-3.0392528 4.09090121 -1.96498625 2.12218515 0 0 Z " transform="translate(440,282)"/>
<path d="M0 0 C0.66 0 1.32 0 2 0 C11.7229555 11.69097541 12.90416928 25.14996864 11.6875 39.75 C8.89318282 52.95949938 1.94518493 67.17736972 -6 78 C-7.57639494 80.44378929 -9.14264681 82.89367845 -10.703125 85.34765625 C-11.13109375 85.89292969 -11.5590625 86.43820313 -12 87 C-12.66 87 -13.32 87 -14 87 C-14.268125 87.7425 -14.53625 88.485 -14.8125 89.25 C-15.9607472 91.90909879 -17.03501375 93.87781485 -19 96 C-19.99 96 -20.98 96 -22 96 C-20.77686647 88.98307606 -19.43519098 81.9889581 -18.0625 75 C-17.90491211 74.18241211 -17.74732422 73.36482422 -17.58496094 72.52246094 C-16.73068364 68.20998698 -15.74498478 63.98160059 -14.55078125 59.75 C-12.73135124 53.23414124 -11.44189824 46.63240238 -10.125 40 C-7.39030688 26.50066951 -4.49034023 13.04239732 0 0 Z " transform="translate(82,121)"/>
<path d="M0 0 C0.05454409 2.35448675 0.0939279 4.70767875 0.125 7.0625 C0.14820313 8.37347656 0.17140625 9.68445313 0.1953125 11.03515625 C-0.15722579 18.19168344 -1.73357874 22.32227044 -6.75 27.4375 C-10.86909276 31.78052055 -14.55973029 36.11119567 -18 41 C-18.71027344 41.98871094 -19.42054688 42.97742188 -20.15234375 43.99609375 C-24.453072 50.0420189 -28.37602862 56.1665051 -31.80859375 62.7578125 C-33 65 -33 65 -35 68 C-35.99 67.67 -36.98 67.34 -38 67 C-38.76041598 47.14469382 -34.77967506 30.72157657 -21.55078125 15.46875 C-20 14 -20 14 -18 14 C-18 13.34 -18 12.68 -18 12 C-16.49096123 10.64626036 -14.91587302 9.36556599 -13.3125 8.125 C-12.00732422 7.10792969 -12.00732422 7.10792969 -10.67578125 6.0703125 C-9.35126953 5.04550781 -9.35126953 5.04550781 -8 4 C-7.12730469 3.25492187 -6.25460937 2.50984375 -5.35546875 1.7421875 C-3 0 -3 0 0 0 Z " transform="translate(446,254)"/>
<path d="M0 0 C0.99 0.33 1.98 0.66 3 1 C3.76041598 20.85530618 -0.22032494 37.27842343 -13.44921875 52.53125 C-15 54 -15 54 -17 54 C-17 54.66 -17 55.32 -17 56 C-18.50903877 57.35373964 -20.08412698 58.63443401 -21.6875 59.875 C-22.55761719 60.55304688 -23.42773438 61.23109375 -24.32421875 61.9296875 C-25.20722656 62.61289063 -26.09023437 63.29609375 -27 64 C-27.87269531 64.74507813 -28.74539062 65.49015625 -29.64453125 66.2578125 C-32 68 -32 68 -35 68 C-35.05454409 65.64551325 -35.0939279 63.29232125 -35.125 60.9375 C-35.14820313 59.62652344 -35.17140625 58.31554687 -35.1953125 56.96484375 C-34.84277421 49.80831656 -33.26642126 45.67772956 -28.25 40.5625 C-24.13090724 36.21947945 -20.44026971 31.88880433 -17 27 C-16.28972656 26.01128906 -15.57945313 25.02257812 -14.84765625 24.00390625 C-10.546928 17.9579811 -6.62397138 11.8334949 -3.19140625 5.2421875 C-2 3 -2 3 0 0 Z " transform="translate(92,177)"/>
<path d="M0 0 C0.13510253 2.91821463 0.2341305 5.83017652 0.3125 8.75 C0.35439453 9.575 0.39628906 10.4 0.43945312 11.25 C0.56331392 17.39349561 0.56331392 17.39349561 -2.39453125 20.578125 C-5 22 -5 22 -7 22 C-7 22.66 -7 23.32 -7 24 C-8.64453125 25.62109375 -8.64453125 25.62109375 -10.8125 27.4375 C-13.82463265 29.97339332 -13.82463265 29.97339332 -16.63671875 32.72265625 C-18 34 -18 34 -20 34 C-20 34.66 -20 35.32 -20 36 C-20.66 36 -21.32 36 -22 36 C-22.2475 36.61875 -22.495 37.2375 -22.75 37.875 C-24.22770762 40.38710296 -25.43955177 40.76107344 -28 42 C-28.33 42.99 -28.66 43.98 -29 45 C-29.99 45 -30.98 45 -32 45 C-32.81951575 34.55117419 -29.27247049 25.03307271 -23.3671875 16.51171875 C-22.91601562 16.01285156 -22.46484375 15.51398438 -22 15 C-21.34 15 -20.68 15 -20 15 C-19.67 14.01 -19.34 13.02 -19 12 C-18.34 12 -17.68 12 -17 12 C-16.773125 11.4225 -16.54625 10.845 -16.3125 10.25 C-14.64018419 7.3831729 -12.72780269 5.86288964 -10 4 C-9.01 4 -8.02 4 -7 4 C-7 3.34 -7 2.68 -7 2 C-4.35261084 0.5393715 -3.10551666 0 0 0 Z " transform="translate(446,227)"/>
<path d="M0 0 C0.99 0 1.98 0 3 0 C3.81951575 10.44882581 0.27247049 19.96692729 -5.6328125 28.48828125 C-6.08398438 28.98714844 -6.53515625 29.48601562 -7 30 C-7.66 30 -8.32 30 -9 30 C-9.33 30.99 -9.66 31.98 -10 33 C-10.66 33 -11.32 33 -12 33 C-12.226875 33.5775 -12.45375 34.155 -12.6875 34.75 C-14.35981581 37.6168271 -16.27219731 39.13711036 -19 41 C-19.99 41 -20.98 41 -22 41 C-22 41.66 -22 42.32 -22 43 C-24.64738916 44.4606285 -25.89448334 45 -29 45 C-29.13510253 42.08178537 -29.2341305 39.16982348 -29.3125 36.25 C-29.35439453 35.425 -29.39628906 34.6 -29.43945312 33.75 C-29.56331392 27.60650439 -29.56331392 27.60650439 -26.60546875 24.421875 C-24 23 -24 23 -22 23 C-22 22.34 -22 21.68 -22 21 C-20.35546875 19.37890625 -20.35546875 19.37890625 -18.1875 17.5625 C-15.17536735 15.02660668 -15.17536735 15.02660668 -12.36328125 12.27734375 C-11 11 -11 11 -9 11 C-9 10.34 -9 9.68 -9 9 C-8.34 9 -7.68 9 -7 9 C-6.7525 8.38125 -6.505 7.7625 -6.25 7.125 C-4.77229238 4.61289704 -3.56044823 4.23892656 -1 3 C-0.67 2.01 -0.34 1.02 0 0 Z " transform="translate(86,227)"/>
</g>
</svg>
