<?xml version="1.0" encoding="utf-8"?>
<!-- Generator: Adobe Illustrator 27.7.0, SVG Export Plug-In . SVG Version: 6.00 Build 0)  -->
<svg version="1.1" id="Layer_1" xmlns="http://www.w3.org/2000/svg" xmlns:xlink="http://www.w3.org/1999/xlink" x="0px" y="0px"
	 viewBox="0 0 1920 1531" style="enable-background:new 0 0 1920 1531;" xml:space="preserve">
<g>
	<g>
		<path fill="currentColor" d="M685.1,1314.8c4.7,11.1,12.1,21,18.4,31.4c17.4,28.6,34.9,57.2,52.3,85.8c19,31.3,38,62.6,57,93.9
			c0.8,1.4,1.4,2.9,2.6,4.8c3.7,0.4,7,0.4,10.3,0.4c1.9-1,3.8-2.4,5.8-2.8c30.4-6.9,58.8-18.2,82.9-38.6
			c23.3-19.8,37.6-44.9,42.4-75.6c2.3-14.5,2.2-28.8,0.8-43.3c-0.3-3.6,0.2-5.7,4.3-7.4c19.4-8.2,37.7-18.5,52.6-33.7
			c18.2-18.6,29.9-40.9,34.5-66.8c2.5-14,2.2-28.1,0.5-42.2c-0.4-3.1,0.5-4.3,3.1-5.7c11.9-6.2,24.2-11.9,35.3-19.3
			c25.7-17,42.5-40.9,50.6-70.9c4.4-16.4,5.2-33.1,3.2-49.9c-0.2-1.5,0.1-3-0.2-4.4c-0.5-3.6,0.8-5.4,4.4-6.9
			c20.2-8,38.4-19.2,53.7-34.8c18.3-18.6,28.7-41.2,32.7-67c4-25.7,2.2-50.7-8.3-74.4c-6-13.4-14.1-26-21.5-38.7
			c-13.9-23.8-28-47.6-42-71.4c-16.1-27.3-32.1-54.6-48.4-81.8c-4.2-6.9-9.2-13.5-14.5-19.6c-6.7-7.7-16.6-10-26-11.4
			c-12.4-1.7-24.7,0-36.5,5.2c-14.8,6.5-28.9,14-41.7,23.9c-18.4,14.4-31.3,32.8-39.9,54.5c-8.8,21.9-8.8,44.6-6.9,67.6
			c0.3,3.7-1.7,4.7-4.3,6.1c-12.6,6.9-25.7,13.2-37.6,21.2c-18.2,12.2-31.2,29.3-40.4,49.3c-8.8,19.4-11.7,39.9-11.1,61.1
			c0.1,4.3,0.2,8.6,1.1,12.7c0.8,3.7-1,4.8-3.7,6.2c-11.2,5.8-22.8,11-33.3,17.9c-25.3,16.8-42.7,39.9-51.2,69.5
			c-5.5,19.2-5.3,38.7-3.9,58.2c0.3,3.5-0.4,5.3-3.9,6.8c-20.8,8.6-39.9,20-55.5,36.5c-12.2,12.9-21.4,27.7-26.4,45
			c-2.2,7.4-2.7,6.8-8.5,3.7c-14-7.6-27.4-16.1-34.6-30.8c-3.8-7.6-6.7-16.4-7.3-24.8c-1.8-23.6,3.1-45.9,15.9-66.4
			c18-29,35.3-58.5,53-87.7c12.3-20.4,24.7-40.7,37-61.1c20.7-34.3,41.3-68.7,61.9-103.1c6.8-11.4,13.7-22.8,20.5-34.2
			c0.3-0.5,0.5-1.2,0.9-2.1c-9.3-6.2-19.4-9.8-30.1-11.5c-5.9-0.9-12.1-1.2-18.1-0.7c-13,1.2-21.5,9.2-28,20
			c-18.1,30.1-36.4,60.1-54.6,90.2c-21.6,35.9-43.1,71.8-64.6,107.8c-10.6,17.7-21.3,35.5-31.9,53.2c-3.5,5.8-3.6,5.9-9.4,2.4
			c-7.4-4.6-14.8-9-21.7-14.3c-14.4-11.1-21.4-26.4-23.8-44.3c-2.4-17.6,0.3-34.7,7.3-50.6c5-11.5,12.4-22,18.8-32.9
			c18.9-31.9,37.9-63.9,56.8-95.8c15.2-25.6,30.4-51.1,45.6-76.6c16.1-27.1,32.1-54.3,48.3-81.3c10.2-17.1,20.6-34,30.9-51
			c5.1-8.4,10.1-16.9,15.2-25.4c1.1-1.8,1.8-3.4-0.9-4.8c-15.7-8.2-32.3-11.9-49.8-9.5c-12.1,1.7-19.3,10.4-25.2,20.7
			c-13.3,23-27.2,45.7-41,68.5c-17.5,29.1-35.1,58.2-52.7,87.3c-19,31.5-38,63-57.1,94.5c-11.5,19.1-23.1,38.2-34.6,57.4
			c-1.4,2.4-2.7,4.1-5.7,2.3c-8.7-5.4-18.1-10-26.1-16.3c-13-10.3-19.7-24.4-21.5-41.1c-2.1-20.8,2.1-40.3,11.9-58.5
			c7.6-14,16.2-27.4,24.3-41.1c17.5-29.5,34.9-59.1,52.4-88.7c13.1-22,26.3-44,39.4-66c17.4-29.4,34.7-58.9,52.1-88.2
			c10.8-18.2,21.8-36.3,32.7-54.5c5.4-9,10.9-18,16.5-26.8c3.1-4.9,4.7-5.1,7.9-0.4c4.1,5.9,7.6,12.2,11,18.6
			c5.8,10.9,10.5,22.4,17.1,32.7c8,12.7,17.1,24.9,26.5,36.7c7.5,9.3,15.6,18.2,24.3,26.5c27.9,26.6,59.5,47.1,97.1,57.5
			c21.2,5.8,42.8,6.8,64.3,5c14.5-1.2,28.8-5.3,43-9.1c6.7-1.8,12.6-6,16.9-12c3.5-4.9,7.5-9.4,10.5-14.5c1.9-3.2,2.4-7.3,3.9-10.9
			l2.1-14.8c-0.7-3.6-1.1-7.3-1.8-10.9c-0.3-1.7-0.9-3.3-1.5-4.9c-7.1-19.3-19.5-35.7-29.8-53.2c-17.2-28.9-34.9-57.6-52.4-86.3
			c-20.9-34.4-41.9-68.7-62.9-103.1c-18.4-30.3-36.8-60.6-55.3-90.9c-15-24.7-30.1-49.3-45.2-74c-0.8-1.4-1.6-2.8-2.9-5.1
			c5.3-1.2,10-2.5,14.7-3.3c23.3-3.7,46.6-5.9,70.3-6.3c39.9-0.6,78.9,4.1,117.4,14.2c24.1,6.4,47.4,15,70.1,25.3
			c31.8,14.5,61.3,32.7,88.6,54.3c19,15,36.8,31.6,53,49.8c15.4,17.2,29.5,35.2,42.1,54.4c29.1,44.3,49.6,92.3,60.9,144.1
			c4.6,21.3,7.3,43.1,9.2,64.8c1.6,19.1,2,38.5,1,57.6c-2.4,44.6-11.8,87.9-27.5,129.7c-1.3,3.4-1.2,6,0.9,9.1
			c5.4,8.4,10,17.2,15.5,25.5c9.7,14.6,19.9,28.9,29.8,43.3c2.4,3.5,4.3,7.2,6.9,11.6c1.2-1.1,3.1-2,3.8-3.5
			c9.4-21.6,19.1-43.1,27.7-65c9.7-24.8,16.1-50.6,21.2-76.7c1.9-9.7,3.1-19.4,4.7-29.1c0.3-1.6,0.9-3.1,1.7-5.1
			c0.3-43.7,0.3-87,0.3-130.2c-1-3.8-2.3-7.5-2.8-11.3c-4.6-31.4-11.3-62.4-22.1-92.2c-6.8-18.8-13.8-37.6-22.1-55.7
			c-7.3-16-15.7-31.7-24.8-46.7c-10.6-17.4-22.3-34.3-34.1-50.9c-6-8.5-13.3-16-20.1-23.9c-6-7-11.9-14.2-18.3-20.9
			c-5.7-6.1-11.9-11.7-18.1-17.4c-5.5-5.1-11-10.3-16.9-15c-14.3-11.4-28.5-22.8-43.2-33.7c-27-19.9-56.2-36-86.9-49.5
			c-21.8-9.6-44.1-17.9-67.1-24.3c-23.6-6.6-44.3-12.6-68.6-15.9c0.1-1-4.3-0.1-5.9-1c-0.8-0.3-1.2,0.1-1.6-0.1
			c-0.3-0.3-1.8-0.3-2.6-0.3C856,15,832.7,14.1,788.1,16c-1.3,0.2-23.9,1-24.9,1.9c-24.5,5.3-49.3,9.5-73.5,16.1
			c-19.4,5.3-38.2,13.2-57.1,20.3c-24.3,9.2-47,21.7-69.2,35.2c-24.4,14.8-47.8,30.9-69.2,49.8c-15.6,13.8-31.1,27.8-45.4,42.9
			c-18.7,19.6-35.2,41-50.4,63.5c-13.8,20.5-26,41.9-36.5,64.2c-15.4,32.6-28.1,66.3-36.2,101.5c-5.4,23.5-9.7,47.2-14.2,70.9
			c-1.3,6.9-1.5,14-2.3,21.1c-0.2,1.4-0.8,2.7-1.6,4.7c-0.3,33.6-0.3,66.6-0.3,99.6c1,3,2.5,5.9,2.8,8.9
			c2.9,34.6,10.5,68.2,21.2,101c11.1,34,25.7,66.5,45.1,96.7c2.6,4,3.9,8.1,3.8,12.9c-0.4,14.1-0.1,28.2,3.6,42.1
			c6.1,23,17.2,42.7,34.2,59.2c15,14.5,32.6,24.7,51.6,32.7c3.4,1.4,3.8,3.3,3.6,6.8c-0.8,16.4-1.6,32.9,1.4,49.2
			c3.7,20.5,11.5,39.1,24.6,55.2c11.4,14.1,25.4,25.2,41.2,33.7c7.2,3.9,14.7,7.1,22.3,10.3c4,1.7,4.7,4.3,4.3,8.2
			c-2.3,22-1.1,43.6,7,64.5c11.4,29.4,30.9,51.8,58.3,66.8c11.7,6.4,24.7,10.4,36.9,15.7"/>
	</g>
</g>
<path fill="currentColor" d="M1032.8,1c-0.1,0.1-0.4,0.3-0.8,0.2C1032,1,1032.5,1,1032.8,1z"/>
</svg>
