<svg version="1.1" id="Layer_1" xmlns="http://www.w3.org/2000/svg" xmlns:xlink="http://www.w3.org/1999/xlink" x="0px" y="0px"
	 width="100%" viewBox="0 0 1063 1063" xml:space="preserve">
<path fill="currentColor" opacity="1.000000" stroke="none" 
	d="
M577.000000,1064.000000 
	C546.979126,1064.000000 516.958191,1064.000000 486.384094,1063.609131 
	C484.477356,1062.813232 483.148254,1062.195801 481.766418,1062.036987 
	C471.731598,1060.883057 461.521393,1060.615967 451.676453,1058.574341 
	C427.176300,1053.493774 402.489197,1048.807495 378.540283,1041.721680 
	C355.521698,1034.911011 333.313568,1025.344360 310.830902,1016.774658 
	C309.220673,1016.160950 307.281067,1013.853760 307.181885,1012.230957 
	C306.245422,996.907532 305.238312,981.565979 305.091309,966.221558 
	C304.788055,934.565857 305.054626,902.905029 304.922974,871.247009 
	C304.908417,867.740784 303.618591,864.258057 303.300140,860.730164 
	C302.916748,856.482910 303.486420,852.094360 302.693756,847.948608 
	C298.924408,828.234802 288.239044,812.974487 272.005310,801.370667 
	C253.587540,788.205750 233.045639,782.966858 210.564880,783.924866 
	C191.130692,784.752991 173.387405,789.814575 157.855103,802.007141 
	C143.995605,812.886597 133.116837,825.889709 129.570816,843.434265 
	C127.732727,852.528503 128.071030,862.062622 127.402412,871.740845 
	C124.223480,872.566895 121.332687,872.054504 118.689873,868.388855 
	C110.444359,856.952209 101.477577,846.030273 93.360336,834.507385 
	C75.415878,809.033997 60.276226,781.878296 47.428005,753.537476 
	C39.964527,737.074280 32.935314,720.292419 27.395533,703.110718 
	C20.887543,682.926147 15.442417,662.317017 10.978408,641.581604 
	C7.506377,625.453918 4.764007,608.891968 4.304579,592.450134 
	C3.313639,556.986877 4.045114,521.476746 3.977599,485.985901 
	C3.950716,471.853973 4.350615,457.848175 6.791264,443.803864 
	C11.692082,415.602875 18.458853,387.905762 27.706261,360.865021 
	C39.671455,325.877075 55.133381,292.470612 74.063980,260.640228 
	C94.874550,225.648773 119.321983,193.454117 147.515137,164.162460 
	C158.568344,152.678589 170.199570,141.652481 182.370316,131.367874 
	C197.430237,118.641815 212.935226,106.360901 228.948441,94.863289 
	C254.237640,76.705406 281.351746,61.471333 309.774231,48.784355 
	C326.441895,41.344406 343.373657,34.306046 360.651733,28.462238 
	C400.059845,15.133601 440.490936,6.192489 482.068695,2.904860 
	C483.089630,2.824132 484.024841,1.659245 485.000000,1.000005 
	C515.687561,1.000000 546.375122,1.000000 577.608032,1.391114 
	C579.340149,2.185931 580.499634,2.808219 581.717712,2.959435 
	C593.552673,4.428688 605.482971,5.318881 617.223267,7.326571 
	C651.164185,13.130780 684.380249,21.712742 716.723022,33.720585 
	C747.849304,45.276821 777.494873,59.792793 806.009705,76.702660 
	C811.281372,79.828850 811.138062,81.082626 805.855713,84.497284 
	C781.443970,100.277878 756.969482,115.964012 732.725708,131.998901 
	C728.551086,134.760025 725.192993,134.979813 720.846863,133.009293 
	C697.217651,122.296021 673.005310,113.206650 648.023560,106.040932 
	C613.195007,96.050781 577.644104,91.199707 541.553711,90.116211 
	C528.614624,89.727768 515.627197,90.479279 502.677887,91.065872 
	C494.074249,91.455605 485.371460,91.787506 476.937347,93.353523 
	C458.101288,96.850937 439.273376,100.570183 420.682678,105.170883 
	C389.972137,112.770920 360.460815,123.920258 331.941406,137.604233 
	C324.609131,141.122345 317.552551,145.234604 310.472809,149.256134 
	C269.150879,172.728516 232.257767,201.700043 200.314316,237.024811 
	C183.899536,255.177124 168.982620,274.382629 155.693298,294.894012 
	C137.533661,322.922455 123.099861,352.785583 111.828941,384.193787 
	C98.402893,421.607605 90.347572,460.267212 88.350121,499.854950 
	C87.192032,522.807434 88.630135,545.966980 90.108505,568.955566 
	C91.662651,593.122559 95.961807,616.972046 103.074234,640.193481 
	C107.383881,654.264038 112.140083,668.197815 116.695648,682.193054 
	C117.371361,682.311768 118.047066,682.430481 118.722778,682.549194 
	C120.671326,679.594727 122.458733,676.517029 124.604362,673.713318 
	C128.271790,668.921204 132.128632,664.271973 135.970932,659.616333 
	C139.922058,654.828918 143.605225,649.750366 148.031784,645.442627 
	C153.782837,639.846008 160.114487,634.839844 166.269287,629.666382 
	C170.035065,626.501099 173.711914,623.145264 177.834808,620.510437 
	C183.296509,617.020264 189.057068,613.954224 194.866379,611.061768 
	C203.221466,606.901733 211.532867,602.518738 220.247421,599.258667 
	C227.154129,596.674988 234.639221,595.638428 241.864853,593.903931 
	C242.341400,593.789490 242.798279,593.589172 243.259796,593.416687 
	C247.192398,591.946289 251.025925,590.060181 255.078903,589.097900 
	C261.111511,587.665649 267.321442,586.998413 273.411926,585.785034 
	C277.026703,585.064819 280.557129,583.921021 284.172333,582.955200 
	C277.609100,580.787292 270.869476,579.249451 264.769348,576.361023 
	C258.092590,573.199646 251.971207,568.846924 245.679306,564.899475 
	C242.869888,563.136780 240.427246,560.703308 237.481720,559.261719 
	C231.125046,556.150696 225.650269,551.896851 220.508484,547.171082 
	C216.369080,543.366455 212.268753,539.492554 208.450119,535.372253 
	C203.009048,529.501465 197.834854,523.382996 192.574844,517.345703 
	C192.273300,516.999573 192.271332,516.409607 192.052139,515.972046 
	C189.474258,510.826050 186.953171,505.649841 184.274536,500.556549 
	C180.918289,494.174835 177.076965,488.022980 174.101669,481.473572 
	C171.376938,475.475800 169.135620,469.187469 167.403107,462.830444 
	C165.774567,456.854950 165.166885,450.606720 163.943222,444.511993 
	C163.568329,442.644684 162.642807,440.887939 161.977814,438.605072 
	C161.980637,419.059448 161.975113,399.989288 162.067398,380.549744 
	C163.775299,374.068085 165.365463,367.950562 167.000702,361.845093 
	C168.890411,354.789398 169.884705,347.306274 172.936737,340.790527 
	C178.414352,329.096466 184.946243,317.874969 191.427155,306.681549 
	C194.458313,301.446320 197.843063,296.193817 202.043152,291.904449 
	C210.338837,283.432434 217.713287,274.135254 228.063889,267.495300 
	C233.668335,263.900024 238.917862,259.316223 244.739059,255.738846 
	C247.524185,254.027267 250.334854,252.357193 253.138504,250.675903 
	C256.211426,248.833130 259.174744,246.756088 262.399200,245.232834 
	C265.342957,243.842178 268.626404,243.191116 271.663452,241.973022 
	C277.206024,239.750015 282.513947,236.749771 288.224976,235.194290 
	C293.681915,233.708038 299.529572,233.665939 305.199310,232.940460 
	C305.994232,232.838745 306.761047,232.480560 307.528290,232.205994 
	C309.553772,231.481079 311.628418,229.974228 313.585022,230.118073 
	C333.527649,231.584198 353.520966,227.569077 373.593597,232.517197 
	C383.503845,234.960159 393.626678,236.736252 403.337036,240.094086 
	C405.279297,240.765732 406.964691,242.149979 408.877350,242.943344 
	C413.716064,244.950424 418.946625,246.246033 423.410522,248.865585 
	C429.244354,252.289093 434.408081,256.834320 440.015472,260.669800 
	C445.013428,264.088409 450.741608,266.612213 455.219391,270.578735 
	C462.253479,276.809601 468.618744,283.817413 475.040588,290.707428 
	C477.852417,293.724274 480.207062,297.190735 482.585632,300.581848 
	C485.537506,304.790405 488.588959,308.972351 491.066742,313.458893 
	C493.929169,318.641937 495.671814,324.496246 498.875458,329.425598 
	C503.743256,336.915710 506.608612,345.095062 509.002197,353.518799 
	C510.020264,357.101776 509.399506,361.712494 511.463806,364.320251 
	C515.906433,369.932556 515.420898,376.944550 515.480042,382.440186 
	C515.780823,410.359283 519.339966,438.700195 509.128265,465.861450 
	C508.009674,468.836792 507.014679,471.860840 506.039093,474.887024 
	C505.060272,477.923462 504.919647,481.547272 503.121124,483.946075 
	C496.223114,493.146240 494.179840,505.007233 486.101410,513.604980 
	C481.893921,518.082947 479.243622,523.988525 475.278625,528.739014 
	C470.598206,534.346558 465.255859,539.401489 460.203033,544.698486 
	C458.066833,546.937866 456.203552,550.695984 453.751892,551.127747 
	C447.668396,552.199280 445.113251,557.876953 439.715210,560.033752 
	C433.447113,562.538330 428.554901,568.277832 422.522675,571.639099 
	C416.376404,575.063965 409.605988,577.393555 403.037689,580.025146 
	C400.016998,581.235352 396.826477,582.021667 392.766815,583.297607 
	C396.684326,584.373718 399.608765,585.334900 402.602783,585.965698 
	C408.361053,587.178772 414.158905,588.203857 419.939148,589.313171 
	C420.096558,589.343323 420.238068,589.450378 420.390625,589.512756 
	C423.990204,590.984741 427.538574,592.603210 431.203979,593.887390 
	C435.319336,595.329346 439.526459,596.518188 443.720978,597.721863 
	C446.207275,598.435364 448.947113,598.554382 451.218781,599.665100 
	C455.612610,601.813416 459.706940,604.564453 464.014313,606.901794 
	C470.896088,610.635864 478.115326,613.821838 484.690002,618.024658 
	C489.924561,621.370972 494.444336,625.848755 499.218597,629.898315 
	C505.632355,635.338562 512.228149,640.598877 518.268555,646.430664 
	C521.586670,649.634216 523.817078,653.938660 526.732361,657.591431 
	C530.609192,662.448914 535.080200,666.881042 538.548157,672.002258 
	C542.100098,677.247620 544.959961,683.001526 547.745300,688.716797 
	C552.062744,697.575684 556.081299,706.580933 560.177002,715.546692 
	C561.119080,717.608948 561.870728,719.758911 562.691833,721.875549 
	C564.414673,726.315857 566.298584,730.703674 567.788940,735.221069 
	C569.096558,739.184326 569.957336,743.294983 571.353699,748.633789 
	C573.466797,742.600403 575.227844,737.677979 576.913940,732.730042 
	C578.892639,726.923462 580.849487,721.108582 582.728271,715.269226 
	C583.563843,712.672485 583.826355,709.836060 584.981689,707.409729 
	C587.064941,703.034668 589.683167,698.917786 591.968872,694.634827 
	C594.473877,689.940857 596.611389,685.033691 599.355225,680.488770 
	C602.497986,675.283020 606.123718,670.368225 609.553589,665.336426 
	C613.475342,659.583008 616.924377,653.415710 621.462280,648.196472 
	C627.548584,641.196411 634.458252,634.908813 641.065491,628.366821 
	C643.266357,626.187683 645.376282,623.769409 647.962219,622.157471 
	C653.236511,618.869690 658.813599,616.069214 664.251038,613.041199 
	C667.880554,611.019897 671.445068,608.878662 675.110413,606.925842 
	C678.908691,604.902283 682.730591,602.900818 686.655579,601.142822 
	C692.236328,598.643188 697.886047,596.286987 703.572815,594.037842 
	C707.433838,592.510803 711.416565,591.293701 715.330872,589.898804 
	C718.874390,588.636047 722.331909,587.071899 725.950012,586.095032 
	C729.888977,585.031555 733.969238,584.491516 737.987915,583.723206 
	C736.874878,582.443176 735.767944,582.371338 734.791565,581.976440 
	C730.065857,580.065125 725.102234,578.534729 720.738281,575.986694 
	C714.659119,572.437195 709.056763,568.075439 703.214539,564.114136 
	C698.800415,561.121216 693.763245,558.797058 689.994629,555.150696 
	C680.039551,545.518616 669.292908,536.545349 661.822144,524.603760 
	C658.179077,518.780701 654.509521,512.972900 650.964905,507.090088 
	C648.500061,502.999420 645.985168,498.908478 643.934265,494.607056 
	C641.683838,489.887177 639.630920,485.023712 638.052490,480.045135 
	C635.968628,473.472198 635.518555,466.147400 632.361389,460.212219 
	C628.971436,453.839630 628.881592,446.972076 628.427307,440.718506 
	C627.186951,423.644073 627.905212,406.419281 628.100586,389.256958 
	C628.130798,386.598907 629.704041,383.994659 630.194519,381.298340 
	C631.342285,374.988312 631.699463,368.477417 633.432312,362.346191 
	C635.345520,355.576538 638.245728,349.056396 641.071350,342.582733 
	C643.643494,336.690063 646.485962,330.891693 649.590942,325.262299 
	C652.417847,320.137085 655.691223,315.251465 658.890503,310.340179 
	C661.908569,305.707184 664.594971,300.727966 668.291504,296.692719 
	C677.451843,286.692780 687.148438,277.193817 698.134705,269.128540 
	C699.292297,268.278748 700.149475,266.972046 701.370361,266.264374 
	C706.875122,263.073456 712.430176,259.965668 718.024841,256.934357 
	C725.322144,252.980576 732.633789,249.048462 740.027771,245.280716 
	C742.130066,244.209442 744.508484,243.619110 746.816040,243.024673 
	C751.457092,241.829102 756.154236,240.851212 760.795593,239.656754 
	C766.559875,238.173325 772.365295,235.012512 778.023132,235.283829 
	C798.318298,236.257126 818.636108,232.496109 839.032532,237.519577 
	C849.048828,239.986481 859.386963,241.164810 868.987976,245.338593 
	C871.003906,246.214966 872.999023,247.141861 875.033325,247.972839 
	C879.883789,249.954163 885.033875,251.397537 889.543823,253.968811 
	C895.619690,257.432861 901.239197,261.707520 906.996033,265.718231 
	C912.039734,269.232178 917.538269,272.313141 921.887512,276.557281 
	C930.398865,284.862915 938.537170,293.599457 946.270020,302.636780 
	C951.307312,308.523804 955.923828,314.939331 959.696960,321.694489 
	C963.855774,329.140106 966.869385,337.229706 970.305969,345.072021 
	C971.423157,347.621460 972.279724,350.284088 973.294739,352.879639 
	C974.836853,356.823364 976.936279,360.637146 977.846191,364.718567 
	C979.059875,370.162445 979.337585,375.812927 980.079285,381.366425 
	C980.182922,382.142303 980.650146,382.867065 980.930176,383.622498 
	C981.625671,385.498291 982.891663,387.372833 982.908691,389.257080 
	C983.063232,406.420227 983.005737,423.585358 982.986938,440.749908 
	C982.985474,442.074646 983.325439,444.072174 982.624817,444.611633 
	C978.844482,447.522522 980.305359,451.510620 979.986023,455.138458 
	C979.899109,456.125641 979.841431,457.136230 979.580505,458.083801 
	C978.067993,463.575653 976.595215,469.081726 974.914124,474.522797 
	C973.826355,478.043335 972.636536,481.568451 971.084717,484.901733 
	C968.140808,491.225555 964.858765,497.390991 961.806396,503.665619 
	C960.004272,507.369995 958.868652,511.500549 956.560059,514.834839 
	C952.079651,521.305908 947.161072,527.500244 942.086487,533.524963 
	C937.974548,538.406799 933.596375,543.117615 928.924500,547.461243 
	C922.870300,553.089783 916.578857,558.499268 910.054504,563.572205 
	C906.253113,566.527954 901.827820,568.695251 897.625793,571.117615 
	C894.023621,573.194214 890.329773,575.111328 886.694702,577.131653 
	C883.063843,579.149597 879.455566,581.208313 875.784912,583.278809 
	C882.066772,584.204773 888.187622,585.067688 894.291138,586.039795 
	C895.513123,586.234497 896.685425,586.803894 897.851807,587.272400 
	C901.077332,588.568054 904.217834,590.122986 907.521729,591.163696 
	C911.543579,592.430603 915.853027,592.879028 919.757568,594.401123 
	C925.306458,596.564270 930.665771,599.253174 935.983337,601.958679 
	C941.233398,604.629883 946.328796,607.604614 951.495483,610.440063 
	C957.216614,613.579773 962.913696,616.422424 967.726807,621.300415 
	C972.714417,626.355103 979.514343,629.566040 985.072144,634.130615 
	C989.779846,637.996948 994.020081,642.486084 998.130371,647.005920 
	C1000.551697,649.668396 1002.258057,652.970337 1004.392883,655.906982 
	C1006.620667,658.971497 1009.055481,661.886536 1011.254822,664.970276 
	C1013.497253,668.114380 1015.688477,671.309143 1017.677185,674.616943 
	C1020.581543,679.447937 1024.648071,684.110352 1025.763672,689.365845 
	C1027.561768,697.837463 1027.710083,706.728455 1027.847046,715.453430 
	C1027.912476,719.624573 1026.900269,724.027222 1025.420288,727.965698 
	C1021.730530,737.785339 1017.547852,747.422363 1013.459351,757.088928 
	C1009.602295,766.208191 1006.014954,775.473083 1001.582336,784.309509 
	C995.781799,795.872986 989.626221,807.294434 982.956543,818.375671 
	C976.583618,828.963867 969.535400,839.163086 962.450989,849.300537 
	C956.087708,858.406006 949.600342,867.464111 942.568176,876.052246 
	C934.704041,885.656433 926.414429,894.945740 917.845337,903.928894 
	C910.204529,911.938843 902.121582,919.557800 893.876770,926.951233 
	C886.780396,933.314758 879.257019,939.213318 871.779236,945.136658 
	C865.658325,949.985107 859.445007,954.736450 853.052002,959.215881 
	C847.659424,962.994202 841.862305,966.190674 836.404846,969.882080 
	C830.811584,973.665222 825.689636,978.214783 819.869995,981.578674 
	C809.076111,987.817566 797.950439,993.487122 786.903381,999.280212 
	C784.141541,1000.728516 781.986938,1000.311829 782.012329,996.478577 
	C782.023376,994.812195 782.015686,993.145569 781.998535,991.479248 
	C781.541138,947.118225 781.183167,902.755554 780.505371,858.397888 
	C780.410278,852.177490 779.507202,845.745117 777.671570,839.815369 
	C770.632202,817.076599 754.889587,801.915466 734.088928,791.379700 
	C714.636719,781.526794 693.786560,778.976196 672.597473,781.323792 
	C647.720398,784.080139 626.069763,794.308838 609.065979,813.365295 
	C601.007202,822.396912 594.921204,832.621155 593.236816,844.475220 
	C591.515564,856.588440 591.084229,868.968811 591.103943,881.230591 
	C591.178223,927.355530 591.682434,973.479736 591.988770,1019.604431 
	C592.064026,1030.935913 592.001648,1042.268311 591.999451,1053.600220 
	C591.997925,1061.264404 591.758484,1061.521606 583.929077,1061.973267 
	C582.433350,1062.059570 580.877991,1061.801636 579.450500,1062.133789 
	C578.538269,1062.345947 577.810486,1063.350586 577.000000,1064.000000 
z"/>
<path opacity="0.000000" stroke="none" 
	d="
M577.468628,1064.000000 
	C577.810486,1063.350586 578.538269,1062.345947 579.450500,1062.133789 
	C580.877991,1061.801636 582.433350,1062.059570 583.929077,1061.973267 
	C591.758484,1061.521606 591.997925,1061.264404 591.999451,1053.600220 
	C592.001648,1042.268311 592.064026,1030.935913 591.988770,1019.604431 
	C591.682434,973.479736 591.178223,927.355530 591.103943,881.230591 
	C591.084229,868.968811 591.515564,856.588440 593.236816,844.475220 
	C594.921204,832.621155 601.007202,822.396912 609.065979,813.365295 
	C626.069763,794.308838 647.720398,784.080139 672.597473,781.323792 
	C693.786560,778.976196 714.636719,781.526794 734.088928,791.379700 
	C754.889587,801.915466 770.632202,817.076599 777.671570,839.815369 
	C779.507202,845.745117 780.410278,852.177490 780.505371,858.397888 
	C781.183167,902.755554 781.541138,947.118225 781.998535,991.479248 
	C782.015686,993.145569 782.023376,994.812195 782.012329,996.478577 
	C781.986938,1000.311829 784.141541,1000.728516 786.903381,999.280212 
	C797.950439,993.487122 809.076111,987.817566 819.869995,981.578674 
	C825.689636,978.214783 830.811584,973.665222 836.404846,969.882080 
	C841.862305,966.190674 847.659424,962.994202 853.052002,959.215881 
	C859.445007,954.736450 865.658325,949.985107 871.779236,945.136658 
	C879.257019,939.213318 886.780396,933.314758 893.876770,926.951233 
	C902.121582,919.557800 910.204529,911.938843 917.845337,903.928894 
	C926.414429,894.945740 934.704041,885.656433 942.568176,876.052246 
	C949.600342,867.464111 956.087708,858.406006 962.450989,849.300537 
	C969.535400,839.163086 976.583618,828.963867 982.956543,818.375671 
	C989.626221,807.294434 995.781799,795.872986 1001.582336,784.309509 
	C1006.014954,775.473083 1009.602295,766.208191 1013.459351,757.088928 
	C1017.547852,747.422363 1021.730530,737.785339 1025.420288,727.965698 
	C1026.900269,724.027222 1027.912476,719.624573 1027.847046,715.453430 
	C1027.710083,706.728455 1027.561768,697.837463 1025.763672,689.365845 
	C1024.648071,684.110352 1020.581543,679.447937 1017.677185,674.616943 
	C1015.688477,671.309143 1013.497253,668.114380 1011.254822,664.970276 
	C1009.055481,661.886536 1006.620667,658.971497 1004.392883,655.906982 
	C1002.258057,652.970337 1000.551697,649.668396 998.130371,647.005920 
	C994.020081,642.486084 989.779846,637.996948 985.072144,634.130615 
	C979.514343,629.566040 972.714417,626.355103 967.726807,621.300415 
	C962.913696,616.422424 957.216614,613.579773 951.495483,610.440063 
	C946.328796,607.604614 941.233398,604.629883 935.983337,601.958679 
	C930.665771,599.253174 925.306458,596.564270 919.757568,594.401123 
	C915.853027,592.879028 911.543579,592.430603 907.521729,591.163696 
	C904.217834,590.122986 901.077332,588.568054 897.851807,587.272400 
	C896.685425,586.803894 895.513123,586.234497 894.291138,586.039795 
	C888.187622,585.067688 882.066772,584.204773 875.784912,583.278809 
	C879.455566,581.208313 883.063843,579.149597 886.694702,577.131653 
	C890.329773,575.111328 894.023621,573.194214 897.625793,571.117615 
	C901.827820,568.695251 906.253113,566.527954 910.054504,563.572205 
	C916.578857,558.499268 922.870300,553.089783 928.924500,547.461243 
	C933.596375,543.117615 937.974548,538.406799 942.086487,533.524963 
	C947.161072,527.500244 952.079651,521.305908 956.560059,514.834839 
	C958.868652,511.500549 960.004272,507.369995 961.806396,503.665619 
	C964.858765,497.390991 968.140808,491.225555 971.084717,484.901733 
	C972.636536,481.568451 973.826355,478.043335 974.914124,474.522797 
	C976.595215,469.081726 978.067993,463.575653 979.580505,458.083801 
	C979.841431,457.136230 979.899109,456.125641 979.986023,455.138458 
	C980.305359,451.510620 978.844482,447.522522 982.624817,444.611633 
	C983.325439,444.072174 982.985474,442.074646 982.986938,440.749908 
	C983.005737,423.585358 983.063232,406.420227 982.908691,389.257080 
	C982.891663,387.372833 981.625671,385.498291 980.930176,383.622498 
	C980.650146,382.867065 980.182922,382.142303 980.079285,381.366425 
	C979.337585,375.812927 979.059875,370.162445 977.846191,364.718567 
	C976.936279,360.637146 974.836853,356.823364 973.294739,352.879639 
	C972.279724,350.284088 971.423157,347.621460 970.305969,345.072021 
	C966.869385,337.229706 963.855774,329.140106 959.696960,321.694489 
	C955.923828,314.939331 951.307312,308.523804 946.270020,302.636780 
	C938.537170,293.599457 930.398865,284.862915 921.887512,276.557281 
	C917.538269,272.313141 912.039734,269.232178 906.996033,265.718231 
	C901.239197,261.707520 895.619690,257.432861 889.543823,253.968811 
	C885.033875,251.397537 879.883789,249.954163 875.033325,247.972839 
	C872.999023,247.141861 871.003906,246.214966 868.987976,245.338593 
	C859.386963,241.164810 849.048828,239.986481 839.032532,237.519577 
	C818.636108,232.496109 798.318298,236.257126 778.023132,235.283829 
	C772.365295,235.012512 766.559875,238.173325 760.795593,239.656754 
	C756.154236,240.851212 751.457092,241.829102 746.816040,243.024673 
	C744.508484,243.619110 742.130066,244.209442 740.027771,245.280716 
	C732.633789,249.048462 725.322144,252.980576 718.024841,256.934357 
	C712.430176,259.965668 706.875122,263.073456 701.370361,266.264374 
	C700.149475,266.972046 699.292297,268.278748 698.134705,269.128540 
	C687.148438,277.193817 677.451843,286.692780 668.291504,296.692719 
	C664.594971,300.727966 661.908569,305.707184 658.890503,310.340179 
	C655.691223,315.251465 652.417847,320.137085 649.590942,325.262299 
	C646.485962,330.891693 643.643494,336.690063 641.071350,342.582733 
	C638.245728,349.056396 635.345520,355.576538 633.432312,362.346191 
	C631.699463,368.477417 631.342285,374.988312 630.194519,381.298340 
	C629.704041,383.994659 628.130798,386.598907 628.100586,389.256958 
	C627.905212,406.419281 627.186951,423.644073 628.427307,440.718506 
	C628.881592,446.972076 628.971436,453.839630 632.361389,460.212219 
	C635.518555,466.147400 635.968628,473.472198 638.052490,480.045135 
	C639.630920,485.023712 641.683838,489.887177 643.934265,494.607056 
	C645.985168,498.908478 648.500061,502.999420 650.964905,507.090088 
	C654.509521,512.972900 658.179077,518.780701 661.822144,524.603760 
	C669.292908,536.545349 680.039551,545.518616 689.994629,555.150696 
	C693.763245,558.797058 698.800415,561.121216 703.214539,564.114136 
	C709.056763,568.075439 714.659119,572.437195 720.738281,575.986694 
	C725.102234,578.534729 730.065857,580.065125 734.791565,581.976440 
	C735.767944,582.371338 736.874878,582.443176 737.987915,583.723206 
	C733.969238,584.491516 729.888977,585.031555 725.950012,586.095032 
	C722.331909,587.071899 718.874390,588.636047 715.330872,589.898804 
	C711.416565,591.293701 707.433838,592.510803 703.572815,594.037842 
	C697.886047,596.286987 692.236328,598.643188 686.655579,601.142822 
	C682.730591,602.900818 678.908691,604.902283 675.110413,606.925842 
	C671.445068,608.878662 667.880554,611.019897 664.251038,613.041199 
	C658.813599,616.069214 653.236511,618.869690 647.962219,622.157471 
	C645.376282,623.769409 643.266357,626.187683 641.065491,628.366821 
	C634.458252,634.908813 627.548584,641.196411 621.462280,648.196472 
	C616.924377,653.415710 613.475342,659.583008 609.553589,665.336426 
	C606.123718,670.368225 602.497986,675.283020 599.355225,680.488770 
	C596.611389,685.033691 594.473877,689.940857 591.968872,694.634827 
	C589.683167,698.917786 587.064941,703.034668 584.981689,707.409729 
	C583.826355,709.836060 583.563843,712.672485 582.728271,715.269226 
	C580.849487,721.108582 578.892639,726.923462 576.913940,732.730042 
	C575.227844,737.677979 573.466797,742.600403 571.353699,748.633789 
	C569.957336,743.294983 569.096558,739.184326 567.788940,735.221069 
	C566.298584,730.703674 564.414673,726.315857 562.691833,721.875549 
	C561.870728,719.758911 561.119080,717.608948 560.177002,715.546692 
	C556.081299,706.580933 552.062744,697.575684 547.745300,688.716797 
	C544.959961,683.001526 542.100098,677.247620 538.548157,672.002258 
	C535.080200,666.881042 530.609192,662.448914 526.732361,657.591431 
	C523.817078,653.938660 521.586670,649.634216 518.268555,646.430664 
	C512.228149,640.598877 505.632355,635.338562 499.218597,629.898315 
	C494.444336,625.848755 489.924561,621.370972 484.690002,618.024658 
	C478.115326,613.821838 470.896088,610.635864 464.014313,606.901794 
	C459.706940,604.564453 455.612610,601.813416 451.218781,599.665100 
	C448.947113,598.554382 446.207275,598.435364 443.720978,597.721863 
	C439.526459,596.518188 435.319336,595.329346 431.203979,593.887390 
	C427.538574,592.603210 423.990204,590.984741 420.390625,589.512756 
	C420.238068,589.450378 420.096558,589.343323 419.939148,589.313171 
	C414.158905,588.203857 408.361053,587.178772 402.602783,585.965698 
	C399.608765,585.334900 396.684326,584.373718 392.766815,583.297607 
	C396.826477,582.021667 400.016998,581.235352 403.037689,580.025146 
	C409.605988,577.393555 416.376404,575.063965 422.522675,571.639099 
	C428.554901,568.277832 433.447113,562.538330 439.715210,560.033752 
	C445.113251,557.876953 447.668396,552.199280 453.751892,551.127747 
	C456.203552,550.695984 458.066833,546.937866 460.203033,544.698486 
	C465.255859,539.401489 470.598206,534.346558 475.278625,528.739014 
	C479.243622,523.988525 481.893921,518.082947 486.101410,513.604980 
	C494.179840,505.007233 496.223114,493.146240 503.121124,483.946075 
	C504.919647,481.547272 505.060272,477.923462 506.039093,474.887024 
	C507.014679,471.860840 508.009674,468.836792 509.128265,465.861450 
	C519.339966,438.700195 515.780823,410.359283 515.480042,382.440186 
	C515.420898,376.944550 515.906433,369.932556 511.463806,364.320251 
	C509.399506,361.712494 510.020264,357.101776 509.002197,353.518799 
	C506.608612,345.095062 503.743256,336.915710 498.875458,329.425598 
	C495.671814,324.496246 493.929169,318.641937 491.066742,313.458893 
	C488.588959,308.972351 485.537506,304.790405 482.585632,300.581848 
	C480.207062,297.190735 477.852417,293.724274 475.040588,290.707428 
	C468.618744,283.817413 462.253479,276.809601 455.219391,270.578735 
	C450.741608,266.612213 445.013428,264.088409 440.015472,260.669800 
	C434.408081,256.834320 429.244354,252.289093 423.410522,248.865585 
	C418.946625,246.246033 413.716064,244.950424 408.877350,242.943344 
	C406.964691,242.149979 405.279297,240.765732 403.337036,240.094086 
	C393.626678,236.736252 383.503845,234.960159 373.593597,232.517197 
	C353.520966,227.569077 333.527649,231.584198 313.585022,230.118073 
	C311.628418,229.974228 309.553772,231.481079 307.528290,232.205994 
	C306.761047,232.480560 305.994232,232.838745 305.199310,232.940460 
	C299.529572,233.665939 293.681915,233.708038 288.224976,235.194290 
	C282.513947,236.749771 277.206024,239.750015 271.663452,241.973022 
	C268.626404,243.191116 265.342957,243.842178 262.399200,245.232834 
	C259.174744,246.756088 256.211426,248.833130 253.138504,250.675903 
	C250.334854,252.357193 247.524185,254.027267 244.739059,255.738846 
	C238.917862,259.316223 233.668335,263.900024 228.063889,267.495300 
	C217.713287,274.135254 210.338837,283.432434 202.043152,291.904449 
	C197.843063,296.193817 194.458313,301.446320 191.427155,306.681549 
	C184.946243,317.874969 178.414352,329.096466 172.936737,340.790527 
	C169.884705,347.306274 168.890411,354.789398 167.000702,361.845093 
	C165.365463,367.950562 163.775299,374.068085 161.796051,380.875153 
	C161.289398,382.383179 161.033157,383.196136 161.031906,384.009521 
	C161.005783,401.120544 160.988373,418.231628 161.047028,435.342468 
	C161.051300,436.589539 161.648102,437.834595 161.969452,439.080566 
	C162.642807,440.887939 163.568329,442.644684 163.943222,444.511993 
	C165.166885,450.606720 165.774567,456.854950 167.403107,462.830444 
	C169.135620,469.187469 171.376938,475.475800 174.101669,481.473572 
	C177.076965,488.022980 180.918289,494.174835 184.274536,500.556549 
	C186.953171,505.649841 189.474258,510.826050 192.052139,515.972046 
	C192.271332,516.409607 192.273300,516.999573 192.574844,517.345703 
	C197.834854,523.382996 203.009048,529.501465 208.450119,535.372253 
	C212.268753,539.492554 216.369080,543.366455 220.508484,547.171082 
	C225.650269,551.896851 231.125046,556.150696 237.481720,559.261719 
	C240.427246,560.703308 242.869888,563.136780 245.679306,564.899475 
	C251.971207,568.846924 258.092590,573.199646 264.769348,576.361023 
	C270.869476,579.249451 277.609100,580.787292 284.172333,582.955200 
	C280.557129,583.921021 277.026703,585.064819 273.411926,585.785034 
	C267.321442,586.998413 261.111511,587.665649 255.078903,589.097900 
	C251.025925,590.060181 247.192398,591.946289 243.259796,593.416687 
	C242.798279,593.589172 242.341400,593.789490 241.864853,593.903931 
	C234.639221,595.638428 227.154129,596.674988 220.247421,599.258667 
	C211.532867,602.518738 203.221466,606.901733 194.866379,611.061768 
	C189.057068,613.954224 183.296509,617.020264 177.834808,620.510437 
	C173.711914,623.145264 170.035065,626.501099 166.269287,629.666382 
	C160.114487,634.839844 153.782837,639.846008 148.031784,645.442627 
	C143.605225,649.750366 139.922058,654.828918 135.970932,659.616333 
	C132.128632,664.271973 128.271790,668.921204 124.604362,673.713318 
	C122.458733,676.517029 120.671326,679.594727 118.722778,682.549194 
	C118.047066,682.430481 117.371361,682.311768 116.695648,682.193054 
	C112.140083,668.197815 107.383881,654.264038 103.074234,640.193481 
	C95.961807,616.972046 91.662651,593.122559 90.108505,568.955566 
	C88.630135,545.966980 87.192032,522.807434 88.350121,499.854950 
	C90.347572,460.267212 98.402893,421.607605 111.828941,384.193787 
	C123.099861,352.785583 137.533661,322.922455 155.693298,294.894012 
	C168.982620,274.382629 183.899536,255.177124 200.314316,237.024811 
	C232.257767,201.700043 269.150879,172.728516 310.472809,149.256134 
	C317.552551,145.234604 324.609131,141.122345 331.941406,137.604233 
	C360.460815,123.920258 389.972137,112.770920 420.682678,105.170883 
	C439.273376,100.570183 458.101288,96.850937 476.937347,93.353523 
	C485.371460,91.787506 494.074249,91.455605 502.677887,91.065872 
	C515.627197,90.479279 528.614624,89.727768 541.553711,90.116211 
	C577.644104,91.199707 613.195007,96.050781 648.023560,106.040932 
	C673.005310,113.206650 697.217651,122.296021 720.846863,133.009293 
	C725.192993,134.979813 728.551086,134.760025 732.725708,131.998901 
	C756.969482,115.964012 781.443970,100.277878 805.855713,84.497284 
	C811.138062,81.082626 811.281372,79.828850 806.009705,76.702660 
	C777.494873,59.792793 747.849304,45.276821 716.723022,33.720585 
	C684.380249,21.712742 651.164185,13.130780 617.223267,7.326571 
	C605.482971,5.318881 593.552673,4.428688 581.717712,2.959435 
	C580.499634,2.808219 579.340149,2.185931 578.076721,1.391114 
	C739.965210,1.000000 901.930420,1.000000 1063.947754,1.000000 
	C1063.947754,355.222412 1063.947754,709.444824 1063.947754,1064.000000 
	C901.979248,1064.000000 739.958313,1064.000000 577.468628,1064.000000 
M574.950195,702.173035 
	C574.178162,700.326660 573.406128,698.480225 572.634094,696.633850 
	C571.885498,696.806519 571.136902,696.979187 570.388306,697.151855 
	C570.501404,699.493896 570.614441,701.835999 570.727417,704.177979 
	C572.026001,703.743713 573.324585,703.309387 574.950195,702.173035 
z"/>
<path opacity="0.000000" stroke="none" 
	d="
M484.531342,1.000005 
	C484.024841,1.659245 483.089630,2.824132 482.068695,2.904860 
	C440.490936,6.192489 400.059845,15.133601 360.651733,28.462238 
	C343.373657,34.306046 326.441895,41.344406 309.774231,48.784355 
	C281.351746,61.471333 254.237640,76.705406 228.948441,94.863289 
	C212.935226,106.360901 197.430237,118.641815 182.370316,131.367874 
	C170.199570,141.652481 158.568344,152.678589 147.515137,164.162460 
	C119.321983,193.454117 94.874550,225.648773 74.063980,260.640228 
	C55.133381,292.470612 39.671455,325.877075 27.706261,360.865021 
	C18.458853,387.905762 11.692082,415.602875 6.791264,443.803864 
	C4.350615,457.848175 3.950716,471.853973 3.977599,485.985901 
	C4.045114,521.476746 3.313639,556.986877 4.304579,592.450134 
	C4.764007,608.891968 7.506377,625.453918 10.978408,641.581604 
	C15.442417,662.317017 20.887543,682.926147 27.395533,703.110718 
	C32.935314,720.292419 39.964527,737.074280 47.428005,753.537476 
	C60.276226,781.878296 75.415878,809.033997 93.360336,834.507385 
	C101.477577,846.030273 110.444359,856.952209 118.689873,868.388855 
	C121.332687,872.054504 124.223480,872.566895 127.402412,871.740845 
	C128.071030,862.062622 127.732727,852.528503 129.570816,843.434265 
	C133.116837,825.889709 143.995605,812.886597 157.855103,802.007141 
	C173.387405,789.814575 191.130692,784.752991 210.564880,783.924866 
	C233.045639,782.966858 253.587540,788.205750 272.005310,801.370667 
	C288.239044,812.974487 298.924408,828.234802 302.693756,847.948608 
	C303.486420,852.094360 302.916748,856.482910 303.300140,860.730164 
	C303.618591,864.258057 304.908417,867.740784 304.922974,871.247009 
	C305.054626,902.905029 304.788055,934.565857 305.091309,966.221558 
	C305.238312,981.565979 306.245422,996.907532 307.181885,1012.230957 
	C307.281067,1013.853760 309.220673,1016.160950 310.830902,1016.774658 
	C333.313568,1025.344360 355.521698,1034.911011 378.540283,1041.721680 
	C402.489197,1048.807495 427.176300,1053.493774 451.676453,1058.574341 
	C461.521393,1060.615967 471.731598,1060.883057 481.766418,1062.036987 
	C483.148254,1062.195801 484.477356,1062.813232 485.915436,1063.609131 
	C324.368103,1064.000000 162.736221,1064.000000 1.052165,1064.000000 
	C1.052165,709.777649 1.052165,355.555328 1.052165,1.000000 
	C162.020737,1.000000 323.041718,1.000000 484.531342,1.000005 
z"/>
<path fill="currentColor" opacity="1.000000" stroke="none" 
	d="
M161.977798,438.605072 
	C161.648102,437.834595 161.051300,436.589539 161.047028,435.342468 
	C160.988373,418.231628 161.005783,401.120544 161.031906,384.009521 
	C161.033157,383.196136 161.289398,382.383179 161.698242,381.244568 
	C161.975113,399.989288 161.980637,419.059448 161.977798,438.605072 
z"/>
<path fill="currentColor" opacity="1.000000" stroke="none" 
	d="
M574.786682,702.524048 
	C573.324585,703.309387 572.026001,703.743713 570.727417,704.177979 
	C570.614441,701.835999 570.501404,699.493896 570.388306,697.151855 
	C571.136902,696.979187 571.885498,696.806519 572.634094,696.633850 
	C573.406128,698.480225 574.178162,700.326660 574.786682,702.524048 
z"/>
</svg>